<?xml version="1.0" encoding="utf-8"?>
<!-- Generator: Adobe Illustrator 16.0.4, SVG Export Plug-In . SVG Version: 6.00 Build 0)  -->
<!DOCTYPE svg PUBLIC "-//W3C//DTD SVG 1.1 Tiny//EN" "http://www.w3.org/Graphics/SVG/1.1/DTD/svg11-tiny.dtd">
<svg version="1.1" baseProfile="tiny" id="Layer_1" xmlns="http://www.w3.org/2000/svg" xmlns:xlink="http://www.w3.org/1999/xlink"
	 x="0px" y="0px" width="412.446px" height="412.507px" viewBox="0 0 412.446 412.507" xml:space="preserve">
<g>
	<path fill-rule="evenodd" fill="#079A59" d="M267.23,9.491c34.809,10.41,64.654,29.015,89.282,55.563
		c39.563,42.651,57.939,93.398,55.761,151.472c-3.492,93.123-73.991,175.272-165.685,191.962
		c-77.322,14.073-142.759-8.98-196.016-66.43c-15.887-17.137-27.196-37.404-36.158-58.947c-0.503-1.211-0.63-2.578-0.931-3.872
		c2.97-0.358,5.244,2.05,8.083,2.085c22.293,0.279,44.6,0.613,66.563-4.175c2.02-0.439,4.928-0.448,5.088-3.753
		c3.311,2.993,6.622,5.986,9.933,8.979c0.011,0.378,0.021,0.757,0.03,1.135c-1.617,0.344-3.226,0.739-4.853,1.021
		c-9.403,1.635-18.743,3.452-27.261,8.086c-2.103,1.145-3.426,1.712-1.315,4.642c7.473,10.372,15.782,19.92,25.389,28.346
		c26.646,24.554,58.008,38.482,94.098,41.757c11.356,1.802,22.706,0.848,34.055-0.088c17.062-1.954,33.436-6.536,49.021-13.642
		c11.134-5.075,21.912-10.898,31.023-19.307c0.465-0.172,1.01-0.241,1.383-0.531c13.796-10.705,25.545-23.321,35.437-37.713
		c1.971-2.868,0.409-3.675-1.847-4.632c-10.045-4.262-20.538-6.776-31.378-7.602c-15.899-1.209-31.577-0.137-46.65,5.667
		c-0.616,0.012-1.232,0.023-1.849,0.034c-0.692-3.979-4.609-4.993-6.981-7.382c-15.288-15.4-30.778-30.599-46.202-45.864
		c-2.092-3.767-6.72-5.453-8.067-9.831c2.979-1.724,5.916-3.372,8.441-5.89c7.892-7.865,15.112-16.274,21.977-25.038
		c15.06-19.227,27.143-40.117,35.447-63.103c6.831-18.906,11.295-38.313,13.435-58.396c1.731-16.247,2.058-32.378,0.688-48.592
		c-0.462-5.47-2.475-10.285-7.155-13.593C269.008,11.15,267.261,11.346,267.23,9.491z M242.042,216.13
		c-0.989,30.137,21.099,54.545,50.199,55.473c29.286,0.935,54.015-21.492,54.929-49.816c0.952-29.469-21.954-54.411-50.727-55.287
		C269.473,165.679,241.334,187.167,242.042,216.13z"/>
	<path fill-rule="evenodd" fill="#0AA663" d="M1.036,189.276c0.095-1.641,0.189-3.282,0.284-4.923
		c3.046-1.254,2.208-3.109,0.781-5.055c-0.233-5.225,1.035-10.279,2.219-15.258c2.327-9.792,4.621-19.617,8.33-29.027
		C39.397,67.141,88.06,24.005,158.663,5.647c1.576-0.41,3.253-0.425,4.885-0.62c2.161,1.081,2.802,3.266,3.49,5.242
		c3.223,9.254,4.835,18.881,5.093,28.61c0.299,11.309,1.141,22.748-2.818,33.735c-8.276,9.035-14.37,19.108-15.101,31.734
		c-0.667,0.585-0.725,1.271-0.334,2.029c-0.606,1.633-0.513,3.291-0.175,4.957c-0.092,7.416,1.5,14.435,4.953,21.015
		c0.244,1.221,0.487,2.442,0.731,3.664c0.874,6.6-2.123,11.364-6.856,15.632c-7.028,6.335-12.532,14.602-22.455,17.126
		c-0.616-0.157-1.232-0.314-1.848-0.473c-0.311-1.625-0.863-2.407-2.152-0.615c-3.314-0.062-6.474-1.724-9.868-0.953
		c-2.661-0.284-5.319-0.424-7.964,0.15c-0.766-0.255-1.462-0.195-2.026,0.453c-1.796,0.273-3.626,0.413-5.384,0.843
		c-13.382,3.277-23.395,11.339-31.376,22.25c-0.962,0.295-1.172,1.066-1.225,1.938l0.001-0.004
		c-5.432,0.246-10.675,1.737-16.086,2.314C34.671,196.541,17.689,194.717,1.036,189.276z"/>
	<path fill-rule="evenodd" fill="#089F5C" d="M130.076,168.772c9.923-2.524,15.427-10.791,22.455-17.126
		c4.733-4.268,7.73-9.032,6.855-15.632c3.173,4.622,6.567,9.042,10.872,12.709c16.997,14.479,36.161,18.371,56.682,9.596
		c20.709-8.856,31.963-25.447,31.912-48.053c-0.052-23.423-12.211-39.497-33.637-48.661c-1.279-0.263-2.587-0.428-3.832-0.804
		c-6.254-1.888-12.475-3.954-19.157-2.402c-12.867,0.35-23.521,5.821-32.913,14.217c3.959-10.988,3.117-22.428,2.818-33.736
		c-0.258-9.729-1.87-19.356-5.093-28.61c-0.688-1.977-1.33-4.161-3.49-5.242c6.908-2.896,14.417-2.898,21.61-3.604
		c13.462-1.322,27.064-2.257,40.604-0.306c12.604,1.814,25.208,3.641,37.466,7.247c0.275,1.519,0.729,2.514,2.122,0.716
		c0.627,0.137,1.253,0.274,1.88,0.411c0.031,1.855,1.778,1.659,2.785,2.371c4.681,3.308,6.693,8.123,7.155,13.593
		c1.37,16.214,1.044,32.345-0.688,48.592c-2.14,20.082-6.604,39.489-13.435,58.396c-8.305,22.985-20.388,43.876-35.447,63.103
		c-6.864,8.764-14.085,17.173-21.977,25.038c-2.525,2.518-5.462,4.166-8.44,5.888c-2.22-0.249-3.335-2.058-4.716-3.431
		c-10.115-10.061-20.18-20.171-30.302-30.223c-1.258-1.25-2.213-2.975-4.241-3.249c0.001,0,0.259-0.054,0.259-0.054
		c-0.393-0.384-0.786-0.768-1.179-1.151c-5.071-5.479-9.694-11.476-16.796-14.624C136.832,172.083,133.454,170.427,130.076,168.772z
		"/>
	<path fill-rule="evenodd" fill="#089F5C" d="M1.036,189.276c16.653,5.441,33.635,7.265,51.113,5.399
		c5.411-0.577,10.654-2.068,16.086-2.314c-0.837,1.786-1.76,3.538-2.499,5.364c-7.345,18.168-6.305,35.479,5.356,51.685
		c2.122,4.354,6.209,7.002,9.2,10.602c0.38,1.587,1.446,2.282,3.016,2.323l-0.081-0.054c0.38,0.345,0.761,0.69,1.142,1.036
		l-0.09-0.152c0.463,1.7,1.628,2.3,3.3,2.11c0.252-0.039,0.488-0.124,0.706-0.256c0.365,0.355,0.73,0.712,1.096,1.067
		c-1.37,0.911-1.011,1.854-0.094,2.862c1.33,1.465,2.622,2.964,3.931,4.448c-0.16,3.304-3.068,3.312-5.088,3.752
		c-21.963,4.788-44.27,4.454-66.563,4.175c-2.839-0.035-5.113-2.443-8.083-2.085c-6.863-16.397-10.347-33.616-12.396-51.177
		c-1.238-10.606-1.23-21.258-0.895-31.909C0.266,193.851,0.035,191.478,1.036,189.276z"/>
	<path fill-rule="evenodd" fill="#089F5C" d="M2.101,179.298c1.427,1.945,2.265,3.801-0.781,5.055
		C1.158,182.603,1.249,180.892,2.101,179.298z"/>
	<path fill-rule="evenodd" fill="#079A59" d="M265.35,9.08c-1.394,1.798-1.847,0.803-2.122-0.716
		C264.069,8.205,264.794,8.391,265.35,9.08z"/>
	<path fill-rule="evenodd" fill="#ADCAB1" d="M242.042,216.13c-0.708-28.964,27.431-50.451,54.401-49.631
		c28.772,0.876,51.679,25.818,50.727,55.287c-0.914,28.324-25.643,50.751-54.929,49.816
		C263.141,270.675,241.053,246.267,242.042,216.13z"/>
	<path fill-rule="evenodd" fill="#056B3D" d="M223.293,367.274c-11.35,0.936-22.699,1.89-34.055,0.088
		c0.018-12.795,0.387-25.602-0.055-38.381c-0.377-10.891-4.526-20.234-13.546-27.105c-7.729-5.888-16.213-10.15-25.418-13.094
		c-4.167-1.789-8.502-2.911-13.024-3.297c-0.574-0.641-1.243-0.882-2.062-0.488c-1.641-0.196-3.282-0.393-4.922-0.59
		c-0.33-0.29-0.661-0.581-0.991-0.871c0.078-1.74,1.225-1.971,2.685-2.239c2.911-0.536,5.915-1.017,8.622-2.142
		c17.242-7.164,33.648-15.929,48.433-27.369c5.896-4.563,13.341-7.734,16.292-15.482c15.424,15.266,30.914,30.464,46.202,45.864
		c2.372,2.389,6.289,3.403,6.979,7.381c-6.074,3.021-12.225,5.85-17.916,9.633c-9.202,6.118-15.255,14.163-16.564,25.334
		C222.284,338.741,223.459,353.02,223.293,367.274z"/>
	<path fill-rule="evenodd" fill="#D7D6C7" d="M150.219,288.782c9.205,2.943,17.689,7.206,25.418,13.094
		c9.02,6.871,13.168,16.215,13.546,27.105c0.442,12.779,0.073,25.586,0.055,38.381c-36.09-3.274-67.451-17.203-94.098-41.757
		c-0.062-2.706-0.069-5.023,3.492-5.996c18.834-5.146,34.419-16.298,49.994-27.443C149.874,291.274,150.272,290.184,150.219,288.782
		z"/>
	<path fill-rule="evenodd" fill="#798E7C" d="M223.293,367.274c0.166-14.254-1.01-28.533,0.658-42.759
		c1.31-11.171,7.362-19.216,16.564-25.334c5.691-3.783,11.842-6.611,17.916-9.633c0.618-0.01,1.234-0.021,1.851-0.033
		c0.217,0.613,0.259,1.402,0.675,1.817c9.021,9.003,18.059,17.991,27.15,26.924c5.27,5.177,11.279,9.646,15.23,16.069
		c-9.111,8.408-19.89,14.231-31.023,19.307C256.729,360.738,240.356,365.32,223.293,367.274z"/>
	<path fill-rule="evenodd" fill="#076E40" d="M205.25,236.303c-2.95,7.748-10.395,10.919-16.292,15.482
		c-14.784,11.44-31.191,20.205-48.433,27.369c-2.707,1.125-5.71,1.605-8.622,2.142c-1.459,0.269-2.607,0.499-2.685,2.239
		c-0.361,0.191-0.722,0.383-1.083,0.574c-2.303-0.269-4.606-0.537-6.909-0.806c0.245-2.856-1.592-3.05-3.72-2.956
		c-2.032,0.09-4.475-0.511-4.277,2.871c-2.996,0.078-5.991,0.157-8.986,0.235c-0.365-0.359-0.73-0.719-1.095-1.079
		c-3.311-2.993-6.622-5.986-9.932-8.979c-1.309-1.483-2.601-2.982-3.931-4.447c-0.917-1.009-1.275-1.951,0.096-2.861
		c0.569,0.127,1.136,0.252,1.703,0.378c0.482,0.799,1.237,0.997,2.102,0.952l-0.005-0.002c0.206,0.557,0.585,0.739,1.146,0.532
		c1.548,0.533,3.096,1.066,4.644,1.6c1.335,0.844,2.721,1.493,4.368,1.121c0.982,0.146,1.964,0.291,2.947,0.438
		c1.246,1.021,2.61,1.097,4.058,0.506c2.255,0.501,4.513,0.468,6.772,0.034c1.439,0.565,2.812,0.569,4.06-0.482
		c2.461,0.046,4.79-0.566,7.07-1.419c0.491,0.328,0.818,0.156,1.04-0.34c1.042-0.186,2.145-0.213,2.91-1.117
		c0.694-0.211,1.388-0.422,2.082-0.633c0.455,0.304,0.663,0.074,0.775-0.359c1.953-0.47,3.681-1.381,5.213-2.672l0.425,0.047
		l0.173-0.412c19.952-11.171,30.442-36.503,23.946-57.823c-0.812-6.229-4.246-11.387-6.889-16.868c2.029,0.275,2.984,2,4.242,3.25
		c10.122,10.052,20.188,20.162,30.302,30.223c1.381,1.373,2.496,3.182,4.716,3.431C198.531,230.85,203.158,232.537,205.25,236.303z"
		/>
	<path fill-rule="evenodd" fill="#ADCAB1" d="M303.338,334.326c-3.951-6.424-9.961-10.893-15.23-16.069
		c-9.092-8.933-18.129-17.921-27.15-26.924c-0.416-0.415-0.458-1.204-0.675-1.817c15.073-5.804,30.751-6.876,46.65-5.667
		c10.84,0.825,21.333,3.34,31.378,7.602c2.256,0.957,3.817,1.764,1.847,4.632c-9.892,14.392-21.641,27.008-35.437,37.713
		C304.348,334.084,303.803,334.154,303.338,334.326z"/>
	<path fill-rule="evenodd" fill="#DBDACB" d="M121.228,283.304c2.303,0.269,4.606,0.537,6.909,0.806
		c0.543,1.128,1.188,1.553,2.074,0.297c1.641,0.197,3.282,0.394,4.922,0.59c0.458,1.132,1.043,1.724,2.062,0.488
		c4.522,0.386,8.858,1.508,13.024,3.297c0.053,1.402-0.346,2.492-1.593,3.384c-15.575,11.146-31.16,22.297-49.994,27.443
		c-3.561,0.973-3.554,3.29-3.492,5.996c-9.607-8.426-17.916-17.974-25.389-28.346c-2.111-2.93-0.788-3.497,1.315-4.642
		c8.519-4.634,17.858-6.451,27.261-8.086c1.627-0.282,3.236-0.678,4.853-1.021c0.355-0.019,0.709-0.037,1.064-0.056
		c2.995-0.078,5.991-0.157,8.986-0.235C115.897,283.248,118.562,283.276,121.228,283.304z"/>
	<path fill-rule="evenodd" fill="#056B3D" d="M104.245,283.455c-0.354,0.019-0.709,0.037-1.064,0.056
		c-0.01-0.378-0.02-0.757-0.03-1.135C103.515,282.736,103.88,283.095,104.245,283.455z"/>
	<path fill-rule="evenodd" fill="#ADCBB2" d="M225.215,61.605c21.426,9.164,33.585,25.238,33.637,48.661
		c0.051,22.605-11.203,39.196-31.912,48.053c-20.521,8.775-39.686,4.884-56.682-9.596c-4.305-3.667-7.699-8.087-10.872-12.709
		c-0.243-1.222-0.487-2.443-0.731-3.664c2.169,1.771,4.389,2.531,7.251,1.348c1.944-0.804,4.167-1.037,6.293-1.28
		c21.376-2.449,35.23-15.402,45.909-32.798C225.327,87.862,225.807,74.831,225.215,61.605z"/>
	<path fill-rule="evenodd" fill="#E9E8DD" d="M71.093,249.41c-11.661-16.205-12.702-33.517-5.356-51.685
		c0.738-1.826,1.661-3.578,2.499-5.364l-0.001,0.004c0.408-0.646,0.816-1.292,1.225-1.938c7.981-10.911,17.994-18.973,31.376-22.25
		c1.758-0.43,3.588-0.569,5.384-0.843c1.022,1.403,1.61,0.857,2.026-0.453c2.645-0.574,5.303-0.435,7.964-0.15
		c-1.113,3.432-0.461,6.766,0.284,10.184c0.806,3.699,1.584,7.484,1.662,11.247c0.26,12.592-3.04,24.38-9.885,34.886
		C99.416,236.634,87.004,245.584,71.093,249.41z"/>
	<path fill-rule="evenodd" fill="#E5E3D7" d="M71.093,249.41c15.911-3.825,28.323-12.775,37.176-26.362
		c6.845-10.506,10.145-22.294,9.885-34.886c-0.078-3.763-0.855-7.548-1.662-11.247c-0.745-3.418-1.397-6.752-0.284-10.184
		c3.394-0.771,6.554,0.891,9.868,0.953c0.531,0.854,1.332,0.77,2.152,0.615c0.616,0.158,1.231,0.315,1.848,0.473
		c3.377,1.655,6.755,3.312,10.133,4.967c-0.189,1.796-0.691,3.623-0.512,5.382c0.793,7.786,0.683,15.484-0.348,23.285
		c-2.953,22.354-14.683,39.267-31.601,53.332c-4.523,3.76-10.823,5.463-13.508,11.392c-0.353,0.095-0.705,0.19-1.058,0.286
		c0,0,0.005,0.002,0.005,0.002c-0.403-0.974-1.186-1.111-2.102-0.952c-0.567-0.126-1.134-0.251-1.703-0.378
		c-0.367-0.356-0.732-0.713-1.098-1.068c-0.362-0.214-0.725-0.428-1.087-0.642c-0.973-0.404-1.946-0.809-2.919-1.213l0.09,0.152
		c-0.086-0.67-0.5-0.979-1.142-1.036l0.081,0.054c-1.005-0.774-2.011-1.549-3.016-2.323
		C77.302,256.412,73.214,253.763,71.093,249.41z"/>
	<path fill-rule="evenodd" fill="#B5D2BA" d="M225.215,61.605c0.592,13.226,0.111,26.257-7.107,38.015
		c-10.679,17.396-24.533,30.349-45.909,32.798c-2.126,0.243-4.349,0.477-6.293,1.28c-2.862,1.184-5.082,0.423-7.251-1.348
		c-3.453-6.58-5.044-13.599-4.953-21.015c4.419-1.406,8.899-1.931,13.579-2.099c13.679-0.49,28.28-11.889,33.066-24.479
		c3.312-8.713,3.299-17.429,1.878-26.359c6.683-1.552,12.903,0.515,19.157,2.402C222.628,61.177,223.936,61.342,225.215,61.605z"/>
	<path fill-rule="evenodd" fill="#BCDAC3" d="M202.226,58.399c1.421,8.931,1.435,17.646-1.878,26.359
		c-4.786,12.59-19.387,23.988-33.066,24.479c-4.68,0.168-9.16,0.692-13.579,2.099c-0.338-1.666-0.431-3.324,0.174-4.957
		c1.293-0.48,1.63-1.12,0.335-2.029c0.73-12.626,6.825-22.699,15.101-31.734C178.705,64.22,189.359,58.749,202.226,58.399z"/>
	<path fill-rule="evenodd" fill="#B5D2BA" d="M154.212,104.349c1.294,0.909,0.958,1.549-0.335,2.029
		C153.487,105.62,153.545,104.934,154.212,104.349z"/>
	<path fill-rule="evenodd" fill="#E5E3D7" d="M108.245,166.881c-0.416,1.311-1.003,1.856-2.026,0.453
		C106.783,166.686,107.479,166.626,108.245,166.881z"/>
	<path fill-rule="evenodd" fill="#089F5C" d="M128.229,168.299c-0.82,0.154-1.621,0.239-2.152-0.615
		C127.365,165.892,127.917,166.674,128.229,168.299z"/>
	<path fill-rule="evenodd" fill="#089F5C" d="M69.458,190.427c-0.408,0.646-0.816,1.291-1.225,1.938
		C68.286,191.494,68.496,190.722,69.458,190.427z"/>
	<path fill-rule="evenodd" fill="#E1DFD2" d="M94.241,267.129c2.685-5.929,8.985-7.632,13.508-11.392
		c16.918-14.065,28.648-30.979,31.601-53.332c1.03-7.801,1.141-15.499,0.348-23.285c-0.179-1.759,0.323-3.586,0.512-5.382
		c7.102,3.148,11.725,9.145,16.796,14.625c0.166,0.617,0.437,1.123,1.178,1.15c0,0-0.257,0.054-0.259,0.054
		c2.641,5.48,6.075,10.639,6.886,16.866c-2.093,0.051-4.792-2.475-5.631,2.055c-3.742,20.179-12.065,38.131-26.54,52.963
		c-2.116,2.169-2.944,4.386-0.442,6.836c-0.766,0.904-1.868,0.932-2.91,1.117c-0.347,0.113-0.693,0.227-1.041,0.34
		c-2.28,0.853-4.609,1.465-7.07,1.419c-1.514-1.193-2.888-1.205-4.06,0.482c-2.26,0.434-4.518,0.467-6.772-0.034
		c-1.167-1.652-2.546-1.614-4.058-0.506c-0.982-0.146-1.964-0.292-2.946-0.438c-1.071-1.872-2.767-1.313-4.369-1.121
		c-1.548-0.533-3.096-1.066-4.644-1.599C94.36,267.668,94.331,267.396,94.241,267.129z"/>
	<path fill-rule="evenodd" fill="#076E40" d="M158.184,189.514c-0.741-0.027-1.013-0.533-1.178-1.15
		C157.398,188.747,157.791,189.13,158.184,189.514z"/>
	<path fill-rule="evenodd" fill="#076E40" d="M84.28,263.165c0.973,0.404,1.946,0.809,2.919,1.213
		c0.042,0.336,0.168,0.635,0.381,0.897C85.908,265.464,84.743,264.865,84.28,263.165z"/>
	<path fill-rule="evenodd" fill="#076E40" d="M80.293,260.011c1.005,0.774,2.011,1.549,3.016,2.323
		C81.739,262.293,80.673,261.598,80.293,260.011z"/>
	<path fill-rule="evenodd" fill="#ADCAB1" d="M87.58,265.275c-0.212-0.263-0.339-0.562-0.381-0.897
		c0.362,0.214,0.725,0.428,1.087,0.642C88.067,265.151,87.832,265.236,87.58,265.275z"/>
	<path fill-rule="evenodd" fill="#076E40" d="M83.228,262.281c0.641,0.058,1.055,0.366,1.142,1.036
		C83.989,262.971,83.608,262.625,83.228,262.281z"/>
	<path fill-rule="evenodd" fill="#ADCAB1" d="M130.211,284.407c-0.886,1.256-1.53,0.831-2.074-0.297
		c0.361-0.191,0.722-0.383,1.083-0.574C129.55,283.826,129.881,284.117,130.211,284.407z"/>
	<path fill-rule="evenodd" fill="#ADCAB1" d="M137.195,285.485c-1.019,1.235-1.604,0.644-2.062-0.488
		C135.952,284.603,136.621,284.844,137.195,285.485z"/>
	<path fill-rule="evenodd" fill="#DBDACB" d="M132.198,268.288c-2.502-2.45-1.674-4.667,0.442-6.836
		c14.475-14.832,22.798-32.784,26.54-52.963c0.84-4.529,3.538-2.004,5.631-2.055c6.497,21.321-3.993,46.653-23.944,57.824
		c-0.272,0.003-0.472,0.124-0.599,0.365c-1.533,1.291-3.26,2.202-5.213,2.672c-0.33-0.035-0.588,0.085-0.775,0.359
		C133.586,267.866,132.892,268.077,132.198,268.288z"/>
	<path fill-rule="evenodd" fill="#056B3D" d="M121.228,283.304c-2.666-0.028-5.331-0.057-7.997-0.085
		c-0.198-3.382,2.245-2.781,4.277-2.871C119.636,280.254,121.473,280.448,121.228,283.304z"/>
	<path fill-rule="evenodd" fill="#ADCAB1" d="M106.288,271.106c1.512-1.108,2.891-1.146,4.058,0.506
		C108.898,272.203,107.534,272.127,106.288,271.106z"/>
	<path fill-rule="evenodd" fill="#ADCAB1" d="M117.118,271.646c1.172-1.688,2.545-1.676,4.06-0.482
		C119.93,272.215,118.557,272.211,117.118,271.646z"/>
	<path fill-rule="evenodd" fill="#ADCAB1" d="M98.973,269.547c1.602-0.192,3.297-0.751,4.369,1.121
		C101.694,271.041,100.308,270.391,98.973,269.547z"/>
	<path fill-rule="evenodd" fill="#ADCAB1" d="M91.086,266.465c0.917-0.159,1.699-0.021,2.102,0.952
		C92.323,267.462,91.568,267.264,91.086,266.465z"/>
	<path fill-rule="evenodd" fill="#ADCAB1" d="M94.241,267.129c0.09,0.267,0.12,0.539,0.088,0.819
		c-0.561,0.206-0.94,0.023-1.146-0.533C93.536,267.32,93.888,267.224,94.241,267.129z"/>
	<path fill-rule="evenodd" fill="#ADCAB1" d="M134.28,267.655c0.187-0.274,0.445-0.395,0.775-0.359
		C134.942,267.729,134.735,267.958,134.28,267.655z"/>
	<path fill-rule="evenodd" fill="#ADCAB1" d="M140.268,264.624c0.126-0.241,0.326-0.362,0.599-0.365c0,0-0.173,0.412-0.173,0.412
		L140.268,264.624z"/>
	<path fill-rule="evenodd" fill="#ADCAB1" d="M128.248,269.745c0.347-0.113,0.694-0.227,1.041-0.34
		C129.066,269.901,128.738,270.073,128.248,269.745z"/>
</g>
</svg>
