<?xml version="1.0" encoding="utf-8"?>
<!-- Generator: Adobe Illustrator 16.0.4, SVG Export Plug-In . SVG Version: 6.00 Build 0)  -->
<!DOCTYPE svg PUBLIC "-//W3C//DTD SVG 1.1 Tiny//EN" "http://www.w3.org/Graphics/SVG/1.1/DTD/svg11-tiny.dtd">
<svg version="1.1" baseProfile="tiny" id="Layer_1" xmlns="http://www.w3.org/2000/svg" xmlns:xlink="http://www.w3.org/1999/xlink"
	 x="0px" y="0px" width="412.446px" height="412.507px" viewBox="0 0 412.446 412.507" xml:space="preserve">
<g>
	<path fill-rule="evenodd" fill="#FFFFFF" d="M267.23,9.491c34.809,10.41,64.654,29.015,89.282,55.563
		c39.563,42.651,57.939,93.398,55.761,151.472c-3.492,93.123-73.991,175.272-165.685,191.962
		c-77.322,14.073-142.759-8.98-196.016-66.43c-15.887-17.137-27.196-37.404-36.158-58.947c-0.503-1.211-0.63-2.578-0.931-3.872
		c2.97-0.358,5.244,2.05,8.083,2.085c22.293,0.279,44.6,0.613,66.563-4.175c2.02-0.439,4.928-0.448,5.088-3.753
		c3.311,2.993,6.622,5.986,9.933,8.979c0.011,0.378,0.021,0.757,0.03,1.135c-1.617,0.344-3.226,0.739-4.853,1.021
		c-9.403,1.635-18.743,3.452-27.261,8.086c-2.103,1.145-3.426,1.712-1.315,4.642c7.473,10.372,15.782,19.92,25.389,28.346
		c26.646,24.554,58.008,38.482,94.098,41.757c11.356,1.802,22.706,0.848,34.055-0.088c17.062-1.954,33.436-6.536,49.021-13.642
		c11.134-5.075,21.912-10.898,31.023-19.307c0.465-0.172,1.01-0.241,1.383-0.531c13.796-10.705,25.545-23.321,35.437-37.713
		c1.971-2.868,0.409-3.675-1.847-4.632c-10.045-4.262-20.538-6.776-31.378-7.602c-15.899-1.209-31.577-0.137-46.65,5.667
		c-0.616,0.012-1.232,0.023-1.849,0.034c-0.692-3.979-4.609-4.993-6.981-7.382c-15.288-15.4-30.778-30.599-46.202-45.864
		c-2.092-3.767-6.72-5.453-8.067-9.831c2.979-1.724,5.916-3.372,8.441-5.89c7.892-7.865,15.112-16.274,21.977-25.038
		c15.06-19.227,27.143-40.117,35.447-63.103c6.831-18.906,11.295-38.313,13.435-58.396c1.731-16.247,2.058-32.378,0.688-48.592
		c-0.462-5.47-2.475-10.285-7.155-13.593C269.008,11.15,267.261,11.346,267.23,9.491z M242.042,216.13
		c-0.989,30.137,21.099,54.545,50.199,55.473c29.286,0.935,54.015-21.492,54.929-49.816c0.952-29.469-21.954-54.411-50.727-55.287
		C269.473,165.679,241.334,187.167,242.042,216.13z"/>
	<path fill-rule="evenodd" fill="#FFFFFF" d="M1.036,189.276c0.095-1.641,0.189-3.282,0.284-4.923
		c3.046-1.254,2.208-3.109,0.781-5.055c-0.233-5.225,1.035-10.279,2.219-15.258c2.327-9.792,4.621-19.617,8.33-29.027
		C39.397,67.141,88.06,24.005,158.663,5.647c1.576-0.41,3.253-0.425,4.885-0.62c2.161,1.081,2.802,3.266,3.49,5.242
		c3.223,9.254,4.835,18.881,5.093,28.61c0.299,11.309,1.141,22.748-2.818,33.735c-8.276,9.035-14.37,19.108-15.101,31.734
		c-0.667,0.585-0.725,1.271-0.334,2.029c-0.606,1.633-0.513,3.291-0.175,4.957c-0.092,7.416,1.5,14.435,4.953,21.015
		c0.244,1.221,0.487,2.442,0.731,3.664c0.874,6.6-2.123,11.364-6.856,15.632c-7.028,6.335-12.532,14.602-22.455,17.126
		c-0.616-0.157-1.232-0.314-1.848-0.473c-0.311-1.625-0.863-2.407-2.152-0.615c-3.314-0.062-6.474-1.724-9.868-0.953
		c-2.661-0.284-5.319-0.424-7.964,0.15c-0.766-0.255-1.462-0.195-2.026,0.453c-1.796,0.273-3.626,0.413-5.384,0.843
		c-13.382,3.277-23.395,11.339-31.376,22.25c-0.962,0.295-1.172,1.066-1.225,1.938l0.001-0.004
		c-5.432,0.246-10.675,1.737-16.086,2.314C34.671,196.541,17.689,194.717,1.036,189.276z"/>
	<path fill-rule="evenodd" fill="#FFFFFF" d="M130.076,168.772c9.923-2.524,15.427-10.791,22.455-17.126
		c4.733-4.268,7.73-9.032,6.855-15.632c3.173,4.622,6.567,9.042,10.872,12.709c16.997,14.479,36.161,18.371,56.682,9.596
		c20.709-8.856,31.963-25.447,31.912-48.053c-0.052-23.423-12.211-39.497-33.637-48.661c-1.279-0.263-2.587-0.428-3.832-0.804
		c-6.254-1.888-12.475-3.954-19.157-2.402c-12.867,0.35-23.521,5.821-32.913,14.217c3.959-10.988,3.117-22.428,2.818-33.736
		c-0.258-9.729-1.87-19.356-5.093-28.61c-0.688-1.977-1.33-4.161-3.49-5.242c6.908-2.896,14.417-2.898,21.61-3.604
		c13.462-1.322,27.064-2.257,40.604-0.306c12.604,1.814,25.208,3.641,37.466,7.247c0.275,1.519,0.729,2.514,2.122,0.716
		c0.627,0.137,1.253,0.274,1.88,0.411c0.031,1.855,1.778,1.659,2.785,2.371c4.681,3.308,6.693,8.123,7.155,13.593
		c1.37,16.214,1.044,32.345-0.688,48.592c-2.14,20.082-6.604,39.489-13.435,58.396c-8.305,22.985-20.388,43.876-35.447,63.103
		c-6.864,8.764-14.085,17.173-21.977,25.038c-2.525,2.518-5.462,4.166-8.44,5.888c-2.22-0.249-3.335-2.058-4.716-3.431
		c-10.115-10.061-20.18-20.171-30.302-30.223c-1.258-1.25-2.213-2.975-4.241-3.249c0.001,0,0.259-0.054,0.259-0.054
		c-0.393-0.384-0.786-0.768-1.179-1.151c-5.071-5.479-9.694-11.476-16.796-14.624C136.832,172.083,133.454,170.427,130.076,168.772z
		"/>
	<path fill-rule="evenodd" fill="#FFFFFF" d="M1.036,189.276c16.653,5.441,33.635,7.265,51.113,5.399
		c5.411-0.577,10.654-2.068,16.086-2.314c-0.837,1.786-1.76,3.538-2.499,5.364c-7.345,18.168-6.305,35.479,5.356,51.685
		c2.122,4.354,6.209,7.002,9.2,10.602c0.38,1.587,1.446,2.282,3.016,2.323l-0.081-0.054c0.38,0.345,0.761,0.69,1.142,1.036
		l-0.09-0.152c0.463,1.7,1.628,2.3,3.3,2.11c0.252-0.039,0.488-0.124,0.706-0.256c0.365,0.355,0.73,0.712,1.096,1.067
		c-1.37,0.911-1.011,1.854-0.094,2.862c1.33,1.465,2.622,2.964,3.931,4.448c-0.16,3.304-3.068,3.312-5.088,3.752
		c-21.963,4.788-44.27,4.454-66.563,4.175c-2.839-0.035-5.113-2.443-8.083-2.085c-6.863-16.397-10.347-33.616-12.396-51.177
		c-1.238-10.606-1.23-21.258-0.895-31.909C0.266,193.851,0.035,191.478,1.036,189.276z"/>
	<path fill-rule="evenodd" fill="#FFFFFF" d="M2.101,179.298c1.427,1.945,2.265,3.801-0.781,5.055
		C1.158,182.603,1.249,180.892,2.101,179.298z"/>
	<path fill-rule="evenodd" fill="#FFFFFF" d="M265.35,9.08c-1.394,1.798-1.847,0.803-2.122-0.716
		C264.069,8.205,264.794,8.391,265.35,9.08z"/>
	<path fill-rule="evenodd" fill="#FFFFFF" d="M223.293,367.274c-11.35,0.936-22.699,1.89-34.055,0.088
		c0.018-12.795,0.387-25.602-0.055-38.381c-0.377-10.891-4.526-20.234-13.546-27.105c-7.729-5.888-16.213-10.15-25.418-13.094
		c-4.167-1.789-8.502-2.911-13.024-3.297c-0.574-0.641-1.243-0.882-2.062-0.488c-1.641-0.196-3.282-0.393-4.922-0.59
		c-0.33-0.29-0.661-0.581-0.991-0.871c0.078-1.74,1.225-1.971,2.685-2.239c2.911-0.536,5.915-1.017,8.622-2.142
		c17.242-7.164,33.648-15.929,48.433-27.369c5.896-4.563,13.341-7.734,16.292-15.482c15.424,15.266,30.914,30.464,46.202,45.864
		c2.372,2.389,6.289,3.403,6.979,7.381c-6.074,3.021-12.225,5.85-17.916,9.633c-9.202,6.118-15.255,14.163-16.564,25.334
		C222.284,338.741,223.459,353.02,223.293,367.274z"/>
	<path fill-rule="evenodd" fill="#FFFFFF" d="M205.25,236.303c-2.95,7.748-10.395,10.919-16.292,15.482
		c-14.784,11.44-31.191,20.205-48.433,27.369c-2.707,1.125-5.71,1.605-8.622,2.142c-1.459,0.269-2.607,0.499-2.685,2.239
		c-0.361,0.191-0.722,0.383-1.083,0.574c-2.303-0.269-4.606-0.537-6.909-0.806c0.245-2.856-1.592-3.05-3.72-2.956
		c-2.032,0.09-4.475-0.511-4.277,2.871c-2.996,0.078-5.991,0.157-8.986,0.235c-0.365-0.359-0.73-0.719-1.095-1.079
		c-3.311-2.993-6.622-5.986-9.932-8.979c-1.309-1.483-2.601-2.982-3.931-4.447c-0.917-1.009-1.275-1.951,0.096-2.861
		c0.569,0.127,1.136,0.252,1.703,0.378c0.482,0.799,1.237,0.997,2.102,0.952l-0.005-0.002c0.206,0.557,0.585,0.739,1.146,0.532
		c1.548,0.533,3.096,1.066,4.644,1.6c1.335,0.844,2.721,1.493,4.368,1.121c0.982,0.146,1.964,0.291,2.947,0.438
		c1.246,1.021,2.61,1.097,4.058,0.506c2.255,0.501,4.513,0.468,6.772,0.034c1.439,0.565,2.812,0.569,4.06-0.482
		c2.461,0.046,4.79-0.566,7.07-1.419c0.491,0.328,0.818,0.156,1.04-0.34c1.042-0.186,2.145-0.213,2.91-1.117
		c0.694-0.211,1.388-0.422,2.082-0.633c0.455,0.304,0.663,0.074,0.775-0.359c1.953-0.47,3.681-1.381,5.213-2.672l0.425,0.047
		l0.173-0.412c19.952-11.171,30.442-36.503,23.946-57.823c-0.812-6.229-4.246-11.387-6.889-16.868c2.029,0.275,2.984,2,4.242,3.25
		c10.122,10.052,20.188,20.162,30.302,30.223c1.381,1.373,2.496,3.182,4.716,3.431C198.531,230.85,203.158,232.537,205.25,236.303z"
		/>
	<path fill-rule="evenodd" fill="#FFFFFF" d="M104.245,283.455c-0.354,0.019-0.709,0.037-1.064,0.056
		c-0.01-0.378-0.02-0.757-0.03-1.135C103.515,282.736,103.88,283.095,104.245,283.455z"/>
	<path fill-rule="evenodd" fill="#FFFFFF" d="M128.229,168.299c-0.82,0.154-1.621,0.239-2.152-0.615
		C127.365,165.892,127.917,166.674,128.229,168.299z"/>
	<path fill-rule="evenodd" fill="#FFFFFF" d="M69.458,190.427c-0.408,0.646-0.816,1.291-1.225,1.938
		C68.286,191.494,68.496,190.722,69.458,190.427z"/>
	<path fill-rule="evenodd" fill="#FFFFFF" d="M158.184,189.514c-0.741-0.027-1.013-0.533-1.178-1.15
		C157.398,188.747,157.791,189.13,158.184,189.514z"/>
	<path fill-rule="evenodd" fill="#FFFFFF" d="M84.28,263.165c0.973,0.404,1.946,0.809,2.919,1.213
		c0.042,0.336,0.168,0.635,0.381,0.897C85.908,265.464,84.743,264.865,84.28,263.165z"/>
	<path fill-rule="evenodd" fill="#FFFFFF" d="M80.293,260.011c1.005,0.774,2.011,1.549,3.016,2.323
		C81.739,262.293,80.673,261.598,80.293,260.011z"/>
	<path fill-rule="evenodd" fill="#FFFFFF" d="M83.228,262.281c0.641,0.058,1.055,0.366,1.142,1.036
		C83.989,262.971,83.608,262.625,83.228,262.281z"/>
	<path fill-rule="evenodd" fill="#FFFFFF" d="M121.228,283.304c-2.666-0.028-5.331-0.057-7.997-0.085
		c-0.198-3.382,2.245-2.781,4.277-2.871C119.636,280.254,121.473,280.448,121.228,283.304z"/>
</g>
</svg>
