<?xml version="1.0" encoding="utf-8"?>
<!-- Generator: Adobe Illustrator 16.0.4, SVG Export Plug-In . SVG Version: 6.00 Build 0)  -->
<!DOCTYPE svg PUBLIC "-//W3C//DTD SVG 1.1 Tiny//EN" "http://www.w3.org/Graphics/SVG/1.1/DTD/svg11-tiny.dtd">
<svg version="1.1" baseProfile="tiny" id="Layer_1" xmlns="http://www.w3.org/2000/svg" xmlns:xlink="http://www.w3.org/1999/xlink"
	 x="0px" y="0px" width="145.889px" height="147.992px" viewBox="0 0 145.889 147.992" xml:space="preserve">
<g>
	<path fill="#242021" d="M0.196,102.611C0.8,90.828-1.123,76.105,1.121,61.542c5.3-34.418,35.577-60.744,70.397-61.524
		c34.728-0.778,65.61,23.876,72.716,58.046c9.77,46.979-24.901,89.688-72.882,89.768c-21.828,0.035-43.657-0.066-65.482,0.158
		c-4.306,0.043-5.966-0.71-5.809-5.539C0.463,130.135,0.196,117.795,0.196,102.611z M108.151,45.053
		c-0.278-0.425-0.558-0.852-0.836-1.279c-1.514-1.681-3.026-3.36-4.541-5.041c-11.941-13.038-26.876-17.871-43.827-13.93
		C29.239,31.71,15.489,64.404,30.569,91.057c1.14,2.014,1.528,3.695,1.073,6.037c-1.296,6.666-3.256,13.229-3.525,20.074
		c-0.49,1.325-1.418,2.629-0.265,4.021c1.441-1.801,3.818-1.332,5.541-2.366c2.995,0.418,5.851-0.364,8.719-1.021
		c1.636,0.979,3.225,0.841,5.135,0.554c4.896-0.735,9.65-0.652,14.579,1.342c16.281,6.591,31.733,4.498,45.462-6.551
		c14.032-11.295,18.164-26.56,15.575-43.803c-0.796-5.3-2.238-10.753-6.569-14.683c-2.163-3.728-4.781-7.068-8.257-9.678
		L108.151,45.053z"/>
	<path fill="#F0E78E" d="M102.774,38.734c1.515,1.681,3.027,3.36,4.541,5.042c-0.128,0.692,0.021,1.203,0.836,1.278
		c0,0-0.115-0.067-0.114-0.067c-0.062,1.786,1.165,3.069,1.812,4.573c3.146,7.312,4.849,14.898,3.907,22.861
		c-3.062,25.911-23.559,42.647-49.572,40.572c-3.737-0.298-7.697-1.704-11.146-0.884c-6.701,1.597-13.112,4.408-19.645,6.717
		c-1.723,1.035-4.1,0.564-5.541,2.367c-1.153-1.395-0.226-2.697,0.266-4.026c2.562-5.759,5.001-11.571,7.734-17.243
		c1.394-2.891,1.41-5.449,0.461-8.537c-7.684-25.009,7.261-51.157,32.839-56.682c9.553-2.062,19.391-1.808,28.595,2.727
		C99.273,38.184,100.727,39.769,102.774,38.734z"/>
	<path fill="#E43D2F" d="M102.774,38.734c-2.047,1.035-3.501-0.55-5.028-1.303c-9.204-4.535-19.042-4.789-28.595-2.727
		c-25.579,5.525-40.522,31.673-32.839,56.682c0.949,3.089,0.933,5.646-0.461,8.537c-2.733,5.672-5.173,11.484-7.734,17.243
		c0.27-6.843,2.229-13.404,3.525-20.07c0.455-2.342,0.066-4.022-1.073-6.037c-15.08-26.652-1.328-59.347,28.378-66.253
		C75.898,20.863,90.832,25.696,102.774,38.734z"/>
	<path fill="#08953B" d="M33.392,118.825c6.532-2.308,12.943-5.12,19.645-6.716c3.448-0.821,7.408,0.584,11.146,0.883
		c26.015,2.076,46.51-14.661,49.572-40.572c0.94-7.963-0.761-15.55-3.907-22.861c-0.646-1.503-1.874-2.787-1.812-4.573
		c3.475,2.609,6.093,5.95,8.257,9.678c-1.442,1.732,0.318,3.003,0.729,4.405c4.92,16.865,1.821,32.057-10.186,44.871
		c-12.066,12.877-27.263,17.047-44.146,12.404c-7.412-2.037-13.859-0.955-20.578,1.461
		C39.242,118.461,36.387,119.243,33.392,118.825z"/>
	<path fill="#01ACEA" d="M42.111,117.805c6.719-2.416,13.166-3.498,20.578-1.461c16.886,4.643,32.08,0.473,44.146-12.404
		c12.007-12.813,15.104-28.006,10.186-44.871c-0.409-1.401-2.171-2.673-0.729-4.405c4.33,3.929,5.772,9.383,6.568,14.683
		c2.589,17.244-1.543,32.506-15.575,43.803c-13.729,11.049-29.181,13.141-45.462,6.55c-4.928-1.994-9.684-2.077-14.579-1.341
		C45.335,118.646,43.746,118.784,42.111,117.805z"/>
	<path fill="#08953B" d="M108.151,45.053c-0.814-0.075-0.964-0.585-0.836-1.278C107.593,44.201,107.872,44.628,108.151,45.053z"/>
</g>
</svg>
