<?xml version="1.0" encoding="utf-8"?>
<!-- Generator: Adobe Illustrator 16.0.4, SVG Export Plug-In . SVG Version: 6.00 Build 0)  -->
<!DOCTYPE svg PUBLIC "-//W3C//DTD SVG 1.1 Tiny//EN" "http://www.w3.org/Graphics/SVG/1.1/DTD/svg11-tiny.dtd">
<svg version="1.1" baseProfile="tiny" id="Layer_1" xmlns="http://www.w3.org/2000/svg" xmlns:xlink="http://www.w3.org/1999/xlink"
	 x="0px" y="0px" width="145.889px" height="147.992px" viewBox="0 0 145.889 147.992" xml:space="preserve">
<g>
	<path fill="#FFFFFF" d="M0.196,102.611C0.8,90.828-1.123,76.105,1.121,61.542c5.3-34.418,35.577-60.744,70.397-61.524
		c34.728-0.778,65.61,23.876,72.716,58.046c9.77,46.979-24.901,89.688-72.882,89.768c-21.828,0.035-43.657-0.066-65.482,0.158
		c-4.306,0.043-5.966-0.71-5.809-5.539C0.463,130.135,0.196,117.795,0.196,102.611z M108.151,45.053
		c-0.278-0.425-0.558-0.852-0.836-1.279c-1.514-1.681-3.026-3.36-4.541-5.041c-11.941-13.038-26.876-17.871-43.827-13.93
		C29.239,31.71,15.489,64.404,30.569,91.057c1.14,2.014,1.528,3.695,1.073,6.037c-1.296,6.666-3.256,13.229-3.525,20.074
		c-0.49,1.325-1.418,2.629-0.265,4.021c1.441-1.801,3.818-1.332,5.541-2.366c2.995,0.418,5.851-0.364,8.719-1.021
		c1.636,0.979,3.225,0.841,5.135,0.554c4.896-0.735,9.65-0.652,14.579,1.342c16.281,6.591,31.733,4.498,45.462-6.551
		c14.032-11.295,18.164-26.56,15.575-43.803c-0.796-5.3-2.238-10.753-6.569-14.683c-2.163-3.728-4.781-7.068-8.257-9.678
		L108.151,45.053z"/>
	<path fill="#08953B" d="M108.151,45.053c-0.814-0.075-0.964-0.585-0.836-1.278C107.593,44.201,107.872,44.628,108.151,45.053z"/>
</g>
</svg>
