<?xml version="1.0" encoding="utf-8"?>
<!-- Generator: Adobe Illustrator 16.0.4, SVG Export Plug-In . SVG Version: 6.00 Build 0)  -->
<!DOCTYPE svg PUBLIC "-//W3C//DTD SVG 1.1 Tiny//EN" "http://www.w3.org/Graphics/SVG/1.1/DTD/svg11-tiny.dtd">
<svg version="1.1" baseProfile="tiny" id="Layer_1" xmlns="http://www.w3.org/2000/svg" xmlns:xlink="http://www.w3.org/1999/xlink"
	 x="0px" y="0px" width="41.734px" height="41.792px" viewBox="0 0 41.734 41.792" xml:space="preserve">
<path fill="#FFFFFF" d="M41.725,12.225c0.002,2.994-0.027,5.987,0.008,8.98c0.105,9.275-6.729,18.416-17.208,20.261
	c-11.419,2.009-22.47-5.489-24.263-17.37C-1.637,11.515,7.097,2.227,16.873,0.349c1.162-0.224,2.319-0.339,3.494-0.341
	c6.574-0.005,13.148-0.011,19.722-0.007c1.616,0.001,1.629,0.018,1.636,1.658C41.731,5.182,41.725,8.703,41.725,12.225z
	 M21.016,34.121c0.134-0.017,0.268-0.031,0.4-0.047c0.967-2.503,1.977-4.99,2.883-7.514c0.353-0.973,0.705-1.708,1.928-1.521
	c0.535,0.082,0.942-0.135,0.847-0.783c-0.233-1.553-0.179-3.143-0.768-4.654c-0.991-2.55-2.694-3.781-5.342-3.698
	c-2.438,0.076-4.197,1.488-4.965,3.984c-0.38,1.237-0.503,2.524-0.651,3.796c-0.142,1.189-0.037,1.354,1.163,1.341
	c0.975-0.01,1.319,0.458,1.584,1.267c0.417,1.275,0.91,2.529,1.384,3.791C19.985,31.427,20.503,32.773,21.016,34.121z
	 M14.298,32.423c0.967-1.604,1.476-3.15,2.06-4.659c0.576-1.486,0.524-1.606-1.027-1.64c-0.952-0.021-1.188-0.396-1.175-1.267
	c0.04-2.362,0.258-4.676,1.396-6.816c0.534-1.002,0.352-1.288-0.788-1.411c-1.747-0.189-3.498,0.747-4.364,2.388
	c-0.784,1.487-0.9,3.141-1.057,4.771c-0.042,0.442,0.094,0.914,0.632,0.84c1.468-0.205,1.716,0.867,2.085,1.854
	C12.774,28.406,13.501,30.315,14.298,32.423z M28.088,32.477c0.859-2.259,1.643-4.254,2.374-6.267
	c0.336-0.924,0.655-1.762,1.906-1.573c0.401,0.062,0.684-0.241,0.657-0.646c-0.129-1.927-0.227-3.872-1.379-5.541
	c-1.223-1.762-3.227-2.266-5.297-1.293c1.4,2.12,1.807,4.523,1.913,6.994c0.071,1.727,0.049,1.756-1.663,1.938
	c-0.688,0.074-1.002,0.361-0.777,1.011C26.426,28.852,27.115,30.571,28.088,32.477z M25.1,11.02
	c-0.021-2.149-1.768-3.901-3.908-3.924c-2.153-0.022-3.871,1.713-3.867,3.907c0.004,2.271,1.6,3.873,3.855,3.868
	C23.388,14.867,25.12,13.167,25.1,11.02z M28.157,9.189c-1.392-0.021-1.812,0.388-1.854,1.816c-0.021,0.706-0.113,1.38-0.423,2.038
	c-0.602,1.284-0.299,2.035,1.014,2.569c1.27,0.517,2.428,0.201,3.413-0.664c1.038-0.909,1.324-2.397,0.814-3.688
	C30.624,10,29.493,9.209,28.157,9.189z M14.303,9.189c-1.438,0.011-2.731,0.991-3.145,2.38c-0.406,1.373,0.162,2.931,1.354,3.709
	c1.246,0.814,2.696,0.741,3.744-0.186c0.633-0.558,0.98-1.104,0.354-1.951c-0.491-0.663-0.611-1.495-0.627-2.34
	C15.959,9.501,15.589,9.18,14.303,9.189z"/>
</svg>
