<?xml version="1.0" encoding="utf-8"?>
<!-- Generator: Adobe Illustrator 16.0.4, SVG Export Plug-In . SVG Version: 6.00 Build 0)  -->
<!DOCTYPE svg PUBLIC "-//W3C//DTD SVG 1.1 Tiny//EN" "http://www.w3.org/Graphics/SVG/1.1/DTD/svg11-tiny.dtd">
<svg version="1.1" baseProfile="tiny"
	 id="svg3399" xmlns:dc="http://purl.org/dc/elements/1.1/" xmlns:cc="http://creativecommons.org/ns#" xmlns:rdf="http://www.w3.org/1999/02/22-rdf-syntax-ns#" xmlns:svg="http://www.w3.org/2000/svg" xmlns:sodipodi="http://sodipodi.sourceforge.net/DTD/sodipodi-0.dtd" xmlns:inkscape="http://www.inkscape.org/namespaces/inkscape" inkscape:version="0.48.1 " sodipodi:docname="New document 4"
	 xmlns="http://www.w3.org/2000/svg" xmlns:xlink="http://www.w3.org/1999/xlink" x="0px" y="0px" width="388.243px"
	 height="125.008px" viewBox="0 0 388.243 125.008" xml:space="preserve">
<sodipodi:namedview  fit-margin-left="0" fit-margin-top="0" showgrid="false" inkscape:cy="107.28628" inkscape:cx="217.07879" inkscape:zoom="1" borderopacity="1.0" bordercolor="#666666" pagecolor="#ffffff" id="base" inkscape:window-maximized="1" inkscape:window-height="721" inkscape:window-width="1024" inkscape:window-y="-4" inkscape:pageopacity="0.0" fit-margin-bottom="0" fit-margin-right="0" inkscape:current-layer="layer1" inkscape:document-units="px" inkscape:window-x="-4" inkscape:pageshadow="2">
	</sodipodi:namedview>
<path id="path3011" inkscape:connector-curvature="0" fill="#232E62" d="M144.688,47.895c4.397,1.521,6.935,1.69,12.01,1.69
	c14.376,0,23.51-7.78,23.51-20.973c0-10.317-5.751-24.186-23.51-24.186h-12.01V47.895z M144.688,79.354
	c0,12.008,2.875,15.393,10.995,15.393v2.877H120.84v-2.877c6.766,0,10.994-2.199,10.994-15.055V18.972
	c0-11.84-2.875-15.392-10.994-15.392V0.705h35.349c26.725,0,37.55,14.207,37.55,27.569c0,16.068-12.178,25.032-34.167,25.032
	c-4.228,0-7.779-0.169-14.883-1.015"/>
<path id="path3013" inkscape:connector-curvature="0" fill="#232E62" d="M228.579,58.211c0.51-13.192-8.455-18.604-16.064-18.604
	c-9.979,0-15.898,7.442-16.576,18.604H228.579L228.579,58.211z M195.936,61.087c-0.337,26.894,15.73,33.658,23.85,33.658
	c8.289,0,12.517-2.873,21.145-12.519v4.398c-7.271,9.305-14.209,12.854-24.694,12.854c-18.774,0-32.306-13.022-32.306-31.121
	s13.191-32.307,30.104-32.307c13.871,0,26.729,11.163,25.879,25.033"/>
<path id="path3015" inkscape:connector-curvature="0" fill="#232E62" d="M304.859,84.596c0,7.78,1.694,10.148,10.147,10.148v2.877
	h-31.965v-2.877c8.117,0,10.314-1.859,10.314-7.441V56.012c0-9.64-6.938-13.699-13.359-13.699c-5.92,0-11.164,3.72-17.082,11.67
	v29.262c0,9.132,1.183,11.5,10.146,11.5v2.877H241.43v-2.877c7.949,0,9.98-0.679,9.98-11.5v-33.66c0-7.272-1.863-8.795-9.98-8.795
	v-2.875l18.604-1.861h2.877v12.009c7.104-8.119,14.039-12.009,21.648-12.009c9.98,0,20.296,7.104,20.296,21.48"/>
<path id="path3017" inkscape:connector-curvature="0" fill="#232E62" d="M378.094,84.596c0,7.78,1.691,10.148,10.148,10.148v2.877
	h-31.965v-2.877c8.113,0,10.311-1.859,10.311-7.441V56.012c0-9.64-6.934-13.699-13.355-13.699c-5.926,0-11.164,3.72-17.086,11.67
	v29.262c0,9.132,1.188,11.5,10.146,11.5v2.877h-31.629v-2.877c7.947,0,9.98-0.679,9.98-11.5v-33.66c0-7.272-1.859-8.795-9.98-8.795
	v-2.875l18.605-1.861h2.873v12.009c7.105-8.119,14.041-12.009,21.65-12.009c9.98,0,20.297,7.104,20.297,21.48"/>
<path id="path3019" inkscape:connector-curvature="0" fill="#232E62" d="M124.277,114.82c0,2.685,0.729,4.738,3.588,4.738
	c2.628,0,4.01-1.767,4.01-4.836v-5.334c0-0.402-0.077-0.729-0.116-1.037c-0.096-0.69-0.749-0.959-1.649-1.054v-0.5h4.528v0.5
	c-0.921,0.095-1.555,0.361-1.65,1.054c-0.039,0.31-0.115,0.635-0.115,1.037v5.409c0,4.125-2.629,5.662-5.104,5.662
	c-4.088,0-5.354-2.074-5.354-5.545v-5.72c0-1.784,0.077-1.688-1.65-1.897v-0.5h5.162v0.5c-1.727,0.211-1.65,0.113-1.65,1.897"/>
<path id="path3021" inkscape:connector-curvature="0" fill="#232E62" d="M145.502,120.229c-2.354-2.779-4.797-5.695-7.209-8.539
	v6.543c0,0.311,0.059,0.562,0.088,0.797c0.075,0.535,0.578,0.742,1.555,0.814v0.385h-3.627v-0.385
	c0.711-0.072,1.2-0.279,1.273-0.814c0.03-0.234,0.089-0.486,0.089-0.797v-6.975c-0.415-0.531-0.874-1.006-1.717-1.006v-0.386h2.694
	c2.206,2.679,4.501,5.403,6.707,8.084h0.029v-6.085c0-0.311-0.06-0.562-0.089-0.799c-0.074-0.535-0.578-0.74-1.555-0.814v-0.386
	h3.628v0.386c-0.696,0.074-1.201,0.279-1.274,0.814c-0.03,0.234-0.089,0.488-0.089,0.799v8.363"/>
<path id="path3023" inkscape:connector-curvature="0" fill="#232E62" d="M153.097,118.379c0,1.376-0.058,1.303,1.274,1.465v0.385
	h-3.982v-0.385c1.333-0.162,1.272-0.088,1.272-1.465v-6.662c0-1.377,0.06-1.303-1.272-1.465v-0.386h3.982v0.386
	c-1.332,0.162-1.274,0.088-1.274,1.465"/>
<path id="path3025" inkscape:connector-curvature="0" fill="#232E62" d="M160.678,110.252c-0.813,0-1.407,0.236-0.919,1.656
	c0.578,1.748,1.438,4.293,2.207,6.545c0.948-2.266,1.85-4.545,2.769-6.811c0.37-0.934-0.015-1.393-1.022-1.393v-0.386h3.198v0.386
	c-0.43,0-0.918,0.146-1.229,0.891c-1.245,3.031-2.502,6.055-3.745,9.088h-0.756c-0.902-2.561-1.91-5.418-2.812-7.937
	c-0.547-1.583-1.006-2.042-1.717-2.042v-0.386h4.026"/>
<path id="path3027" inkscape:connector-curvature="0" fill="#232E62" d="M169.191,119.844c1.332-0.162,1.273-0.089,1.273-1.465
	v-6.662c0-1.377,0.059-1.303-1.273-1.465v-0.386h6.618v2.386h-0.385c-0.147-1.098-0.444-1.912-1.511-1.912h-2.012v4.234h1.243
	c0.933,0,1.333-0.369,1.361-1.289h0.385v3.154h-0.385c-0.029-0.873-0.37-1.394-1.361-1.394h-1.243v3.349
	c0,1.258,0.578,1.358,1.91,1.358c2.146,0,2.043-0.604,2.724-2.188h0.385l-0.445,2.664h-7.283"/>
<path id="path3029" inkscape:connector-curvature="0" fill="#232E62" d="M181.894,115.168h1.229c1.289,0,1.881-0.977,1.881-2.65
	c0-1.615-0.889-2.178-1.97-2.178h-1.139L181.894,115.168L181.894,115.168z M179.184,109.867h4.309c1.495,0,2.991,0.785,2.991,2.517
	c0,1.525-0.933,2.576-2.072,3.021l1.451,2.204c0.74,1.08,1.569,2.117,2.087,2.43v0.189h-1.524c-0.875,0-1.348-1.612-3.14-4.59
	h-1.391v2.739c0,1.376-0.06,1.304,1.272,1.465v0.386h-3.982v-0.386c1.333-0.161,1.274-0.088,1.274-1.465v-6.662
	c0-1.377,0.059-1.303-1.274-1.465"/>
<path id="path3031" inkscape:connector-curvature="0" fill="#232E62" d="M195.279,112.072c-0.12-1.034-0.683-1.865-1.866-1.865
	c-0.86,0-1.629,0.445-1.629,1.54c0,1.037,1.037,1.659,2.519,2.771c1.566,1.168,2.07,1.924,2.07,3.153
	c0,1.761-1.806,2.736-3.583,2.736c-0.946,0-1.761-0.179-2.53-0.472c-0.06-0.03-0.105-0.093-0.105-0.209v-2.131h0.386
	c0.162,1.644,1.243,2.293,2.384,2.293c1.051,0,1.91-0.8,1.91-1.88c0-0.963-0.518-1.748-2.738-3.213
	c-0.8-0.535-1.791-1.11-1.791-2.728c0-1.329,1.48-2.381,3.182-2.381c0.636,0,1.481,0.074,2.072,0.278
	c0.089,0.031,0.104,0.089,0.104,0.163v1.939"/>
<path id="path3033" inkscape:connector-curvature="0" fill="#232E62" d="M201.749,118.379c0,1.376-0.06,1.303,1.271,1.465v0.385
	h-3.982v-0.385c1.334-0.162,1.273-0.088,1.273-1.465v-6.662c0-1.377,0.061-1.303-1.273-1.465v-0.386h3.982v0.386
	c-1.331,0.162-1.271,0.088-1.271,1.465"/>
<path id="path3035" inkscape:connector-curvature="0" fill="#232E62" d="M210.334,118.379c0,1.376-0.061,1.303,1.273,1.465v0.385
	h-3.984v-0.385c1.334-0.162,1.272-0.088,1.272-1.465v-8.039h-1.331c-1.289,0-1.586,0.814-2.072,1.791h-0.371l0.398-2.265h8.188
	l0.4,2.265h-0.371c-0.488-0.977-0.785-1.791-2.074-1.791h-1.33"/>
<path id="path3037" inkscape:connector-curvature="0" fill="#232E62" d="M218.418,119.844c1.33-0.162,1.271-0.089,1.271-1.465V116.1
	l-2.279-4.518c-0.488-0.962-0.902-1.33-1.582-1.33v-0.386h3.771v0.386c-1.123,0-1.021,0.562-0.65,1.33l1.795,3.717l2.041-3.717
	c0.504-0.902,0.027-1.33-0.848-1.33v-0.386h3.053v0.386c-0.414,0-0.812,0.191-1.215,0.902l-2.471,4.484
	c-0.148,0.297-0.182,0.711-0.182,1.081v1.657c0,1.376-0.057,1.303,1.273,1.465v0.387h-3.982"/>
<path id="path3039" inkscape:connector-curvature="0" fill="#232E62" d="M238.448,112.939c0-1.996-1.207-2.073-1.514-2.073
	c-2.074,0-3.436,3.723-3.436,6.219c0,0.998,0.174,2.8,1.594,2.8C237.282,119.884,238.448,116.275,238.448,112.939z M231.733,116.682
	c0-2.514,2.168-6.273,5.372-6.273c2.556,0,3.108,1.729,3.108,3.451c0,2.111-1.688,6.604-5.354,6.604
	C232.405,120.461,231.733,118.484,231.733,116.682"/>
<path id="path3041" inkscape:connector-curvature="0" fill="#232E62" d="M249.866,111.041l-0.459,0.402h-2.515
	c-0.94,4.563-2.476,10.647-3.567,13.563h-0.865l2.746-13.563h-1.822l0.172-0.808h1.805c1.018-4.087,4.395-4.51,5.199-4.51
	c0.439,0,1.359,0.077,1.65,0.347l-0.231,1.267l-0.479,0.229c-0.269-0.517-0.883-1.112-1.688-1.112c-1.15,0-2.016,0.789-2.479,2.858
	l-0.209,0.922h2.819"/>
<path id="path3043" inkscape:connector-curvature="0" fill="#232E62" d="M261.571,117.833c0,1.783-0.076,1.688,1.648,1.899v0.496
	h-5.16v-0.496c1.727-0.211,1.65-0.116,1.65-1.899v-8.635c0-1.785,0.076-1.688-1.65-1.898v-0.5h5.025c3.186,0,4.76,1.265,4.76,3.57
	c0,2.762-2.494,4.259-5.43,4.084v-0.384c2.397,0.037,3.51-1.397,3.51-3.51c0-2.15-1.033-3.147-3.186-3.147h-1.17"/>
<path id="path3045" inkscape:connector-curvature="0" fill="#232E62" d="M270.491,119.844c1.334-0.162,1.273-0.089,1.273-1.465
	v-6.662c0-1.377,0.061-1.303-1.273-1.465v-0.386h6.617v2.386h-0.387c-0.146-1.098-0.441-1.912-1.508-1.912H273.2v4.234h1.243
	c0.933,0,1.334-0.369,1.362-1.289h0.385v3.154h-0.385c-0.028-0.873-0.371-1.394-1.362-1.394H273.2v3.349
	c0,1.258,0.578,1.358,1.908,1.358c2.148,0,2.045-0.604,2.725-2.188h0.389l-0.446,2.664h-7.282"/>
<path id="path3047" inkscape:connector-curvature="0" fill="#232E62" d="M289.973,120.229c-2.354-2.779-4.795-5.695-7.21-8.539
	v6.543c0,0.311,0.06,0.562,0.089,0.797c0.074,0.535,0.576,0.742,1.554,0.814v0.385h-3.624v-0.385
	c0.707-0.072,1.196-0.279,1.271-0.814c0.029-0.234,0.088-0.486,0.088-0.797v-6.975c-0.414-0.531-0.87-1.006-1.717-1.006v-0.386
	h2.693c2.209,2.679,4.502,5.403,6.707,8.084h0.03v-6.085c0-0.311-0.062-0.562-0.089-0.799c-0.073-0.535-0.576-0.74-1.557-0.814
	v-0.386h3.627v0.386c-0.692,0.074-1.198,0.279-1.271,0.814c-0.03,0.234-0.091,0.488-0.091,0.799v8.363"/>
<path id="path3049" inkscape:connector-curvature="0" fill="#232E62" d="M303.239,120.229c-2.354-2.779-4.796-5.695-7.209-8.539
	v6.543c0,0.311,0.061,0.562,0.088,0.797c0.074,0.535,0.578,0.742,1.555,0.814v0.385h-3.625v-0.385
	c0.707-0.072,1.195-0.279,1.271-0.814c0.033-0.234,0.092-0.486,0.092-0.797v-6.975c-0.414-0.531-0.873-1.006-1.719-1.006v-0.386
	h2.691c2.209,2.679,4.503,5.403,6.707,8.084h0.031v-6.085c0-0.311-0.061-0.562-0.088-0.799c-0.074-0.535-0.578-0.74-1.558-0.814
	v-0.386h3.628v0.386c-0.693,0.074-1.2,0.279-1.271,0.814c-0.031,0.234-0.092,0.488-0.092,0.799v8.363"/>
<path id="path3051" inkscape:connector-curvature="0" fill="#232E62" d="M312.875,112.072c-0.115-1.034-0.68-1.865-1.863-1.865
	c-0.857,0-1.631,0.445-1.631,1.54c0,1.037,1.037,1.659,2.518,2.771c1.57,1.168,2.074,1.924,2.074,3.153
	c0,1.761-1.805,2.736-3.582,2.736c-0.949,0-1.762-0.179-2.533-0.472c-0.059-0.03-0.104-0.093-0.104-0.209v-2.131h0.387
	c0.162,1.644,1.24,2.293,2.383,2.293c1.049,0,1.908-0.8,1.908-1.88c0-0.963-0.516-1.748-2.738-3.213
	c-0.801-0.535-1.791-1.11-1.791-2.728c0-1.329,1.479-2.381,3.182-2.381c0.639,0,1.482,0.074,2.074,0.278
	c0.09,0.031,0.104,0.089,0.104,0.163v1.939"/>
<path id="path3053" inkscape:connector-curvature="0" fill="#232E62" d="M318.842,119.844c1.334-0.162,1.275-0.089,1.275-1.465
	V116.1l-2.279-4.518c-0.488-0.962-0.904-1.33-1.586-1.33v-0.386h3.777v0.386c-1.127,0-1.023,0.562-0.652,1.33l1.791,3.717
	l2.041-3.717c0.504-0.902,0.033-1.33-0.842-1.33v-0.386h3.051v0.386c-0.416,0-0.816,0.191-1.213,0.902l-2.479,4.484
	c-0.145,0.297-0.176,0.711-0.176,1.081v1.657c0,1.376-0.061,1.303,1.271,1.465v0.387h-3.982"/>
<path id="path3055" inkscape:connector-curvature="0" fill="#232E62" d="M327.844,119.844c1.334-0.162,1.275-0.089,1.275-1.465
	v-6.662c0-1.377,0.059-1.303-1.275-1.465v-0.386h3.984v0.386c-1.334,0.162-1.273,0.088-1.273,1.465v6.898
	c0,1.037,0.578,1.14,1.895,1.14c2.148,0,2.059-0.604,2.738-2.19h0.371l-0.445,2.664h-7.27"/>
<path id="path3057" inkscape:connector-curvature="0" fill="#232E62" d="M340.727,110.252c-0.814,0-1.408,0.236-0.92,1.656
	c0.58,1.748,1.438,4.293,2.209,6.545c0.943-2.266,1.852-4.545,2.766-6.811c0.371-0.934-0.012-1.393-1.021-1.393v-0.386h3.199v0.386
	c-0.428,0-0.92,0.146-1.229,0.891c-1.246,3.031-2.502,6.055-3.748,9.088h-0.754c-0.902-2.561-1.91-5.418-2.812-7.937
	c-0.549-1.583-1.006-2.042-1.717-2.042v-0.386h4.027"/>
<path id="path3059" inkscape:connector-curvature="0" fill="#232E62" d="M353.002,116.232l-1.572-4.812h-0.029l-1.762,4.812H353.002
	z M349.415,116.796l-0.678,1.981c-0.195,0.578,0.088,1.064,0.738,1.064v0.387h-2.691v-0.387c0.398,0,0.826-0.252,1.064-0.738
	c0.637-1.305,2.367-6.146,3.596-9.414h0.832c1.006,2.977,2.516,7.535,3.02,8.852c0.326,0.832,0.562,1.303,1.199,1.303v0.385h-3.451
	v-0.385c0.939,0,1.023-0.488,0.785-1.14l-0.637-1.908"/>
<path id="path3061" inkscape:connector-curvature="0" fill="#232E62" d="M367.895,120.229c-2.354-2.779-4.799-5.695-7.209-8.539
	v6.543c0,0.311,0.057,0.562,0.088,0.797c0.074,0.535,0.576,0.742,1.555,0.814v0.385H358.7v-0.385
	c0.711-0.072,1.199-0.279,1.273-0.814c0.029-0.234,0.09-0.486,0.09-0.797v-6.975c-0.414-0.531-0.875-1.006-1.717-1.006v-0.386h2.693
	c2.205,2.679,4.502,5.403,6.707,8.084h0.027v-6.085c0-0.311-0.061-0.562-0.092-0.799c-0.07-0.535-0.572-0.74-1.555-0.814v-0.386
	h3.629v0.386c-0.693,0.074-1.201,0.279-1.27,0.814c-0.029,0.234-0.09,0.488-0.09,0.799v8.363"/>
<path id="path3063" inkscape:connector-curvature="0" fill="#FFFFFF" d="M374.895,118.379c0,1.376-0.057,1.303,1.273,1.465v0.385
	h-3.98v-0.385c1.33-0.162,1.273-0.088,1.273-1.465v-6.662c0-1.377,0.057-1.303-1.273-1.465v-0.386h3.98v0.386
	c-1.33,0.162-1.273,0.088-1.273,1.465"/>
<path id="path3065" inkscape:connector-curvature="0" fill="#FFFFFF" d="M384.668,116.232l-1.568-4.812h-0.033l-1.758,4.812H384.668
	z M381.086,116.796l-0.684,1.981c-0.191,0.578,0.09,1.064,0.744,1.064v0.387h-2.697v-0.387c0.395,0,0.828-0.252,1.062-0.738
	c0.639-1.305,2.369-6.146,3.602-9.414h0.828c1.008,2.977,2.518,7.535,3.02,8.852c0.326,0.832,0.562,1.303,1.199,1.303v0.385h-3.449
	v-0.385c0.932,0,1.021-0.488,0.781-1.14l-0.633-1.908"/>
<path id="path3067" inkscape:connector-curvature="0" fill="#FFFFFF" d="M0.782,0.731h106.213c0,0,0,52.177,0,53.097
	c-0.719,43.281-49.222,66.029-55.323,65.82C45.326,119.432,0.638,97.17,0.771,53.602C0.772,52.82,0.782,0.731,0.782,0.731"/>
<path id="path3069" inkscape:connector-curvature="0" fill="#A41C21" d="M0.771,33C0.926,33.153,0.778,0.74,0.778,0.74h106.135
	c0,0,0,17.384,0,32.261"/>
<path id="path3071" inkscape:connector-curvature="0" fill="none" stroke="#A41C21" stroke-width="0.4793" stroke-miterlimit="3.8636" d="
	M0.771,33C0.926,33.153,0.778,0.74,0.778,0.74h106.135c0,0,0,17.384,0,32.261L0.771,33L0.771,33z"/>
<path id="path3073" inkscape:connector-curvature="0" fill="#232E62" d="M6.718,80.229c4.083,8.58,9.13,15.49,16.215,21.369
	L53.838,70.35l29.749,30.516c6.132-5.607,12.105-12.398,16.385-20.441L53.803,36.005L6.93,80.318"/>
<path id="path3075" inkscape:connector-curvature="0" fill="none" stroke="#232E62" stroke-width="0.479" stroke-miterlimit="3.8636" d="
	M6.718,80.229c4.083,8.58,9.13,15.49,16.215,21.369L53.838,70.35l29.749,30.516c6.132-5.607,12.105-12.398,16.385-20.441
	L53.803,36.005L6.93,80.318L6.718,80.229z"/>
<path id="path3077" inkscape:connector-curvature="0" fill="none" stroke="#232E62" stroke-width="0.4793" stroke-miterlimit="3.8636" d="
	M0.771,33.219l106.136-0.014"/>
<path id="path3079" inkscape:connector-curvature="0" fill="#FFFFFF" d="M80.32,8.756h2.889c2.117-0.483,2.889-1.711,5.06-1.711
	c1.562,0,2.298,1.038,3.446,1.038c0.969,0,2.459-1.106,4.091-1.106c1.669,0,2.495,1.003,3.59,1.469
	c0.969,0.415,2.242,0.393,3.588,0.393c-0.037,0.968,0,1.543,0,2.355c0,0.83,1.112,0.501,1.112,1.85c0,1.417-1.437,1.141-1.437,1.711
	l-0.053,5.271c0.072,0.657,1.4,0.744,1.4,1.746c0,1.487-1.479,0.972-1.382,2.144c0.071,0.864,0,2.696,0,2.696
	c-2.853,0-21.203,0.168-22.101,0.133c0.054-1.953,0.358-1.836,0.425-2.778c0.054-0.76-1.65-1.228-1.65-2.506
	c0-0.882,1.022-0.83,1.111-1.66v-5.254c-0.053-0.691-1.596-1.037-1.543-2.021c0.064-1.179,1.437-1.029,1.437-1.816
	C80.302,10.365,80.338,9.085,80.32,8.756"/>
<path id="path3081" inkscape:connector-curvature="0" fill="none" stroke="#232E62" stroke-width="0.4793" stroke-miterlimit="3.8636" d="
	M80.32,8.756h2.889c2.117-0.483,2.889-1.711,5.06-1.711c1.562,0,2.298,1.038,3.446,1.038c0.969,0,2.459-1.106,4.091-1.106
	c1.669,0,2.495,1.003,3.59,1.469c0.969,0.415,2.242,0.393,3.588,0.393c-0.037,0.968,0,1.543,0,2.355c0,0.83,1.112,0.501,1.112,1.85
	c0,1.417-1.437,1.141-1.437,1.711l-0.053,5.271c0.072,0.657,1.4,0.744,1.4,1.746c0,1.487-1.479,0.972-1.382,2.144
	c0.071,0.864,0,2.696,0,2.696c-2.853,0-21.203,0.168-22.101,0.133c0.054-1.953,0.358-1.836,0.425-2.778
	c0.054-0.76-1.65-1.228-1.65-2.506c0-0.882,1.022-0.83,1.111-1.66v-5.254c-0.053-0.691-1.596-1.037-1.543-2.021
	c0.064-1.179,1.437-1.029,1.437-1.816C80.302,10.365,80.338,9.085,80.32,8.756L80.32,8.756z"/>
<path id="path3083" inkscape:connector-curvature="0" fill="none" stroke="#232E62" stroke-width="0.4793" stroke-miterlimit="3.8636" d="
	M82.671,8.844c0,0,0.036,11.753,0,14.519c0,0,17.119,0.035,17.872-0.035c0-3.129-0.017-14.572-0.017-14.572"/>
<path id="path3085" inkscape:connector-curvature="0" fill="none" stroke="#232E62" stroke-width="0.4793" stroke-miterlimit="3.8636" d="
	M91.625,8.117v15.28"/>
<path id="path3087" inkscape:connector-curvature="0" fill="#232E62" d="M91.895,21.513c0.753,0.035,2.137,0.543,3.481,0.951
	c1.74,0.527,3.585,0.158,4.951,0.432c0.431,0.087-8.433,0.156-8.433,0.156C91.93,21.34,91.895,21.513,91.895,21.513"/>
<path id="path3089" inkscape:connector-curvature="0" fill="none" stroke="#232E62" stroke-width="0.4793" stroke-miterlimit="3.8636" d="
	M91.895,21.513c0.753,0.035,2.137,0.543,3.481,0.951c1.74,0.527,3.585,0.158,4.951,0.432c0.431,0.087-8.433,0.156-8.433,0.156
	C91.93,21.34,91.895,21.513,91.895,21.513L91.895,21.513z"/>
<path id="path3091" inkscape:connector-curvature="0" fill="#232E62" d="M90.62,23.778c0-0.382,0.446-0.692,0.996-0.692
	c0.551,0,0.996,0.31,0.996,0.692c0,0.381-0.445,0.691-0.996,0.691C91.066,24.469,90.62,24.159,90.62,23.778"/>
<path id="path3093" inkscape:connector-curvature="0" fill="none" stroke="#232E62" stroke-width="0.4793" stroke-miterlimit="3.8636" d="
	M90.62,23.778c0-0.382,0.446-0.692,0.996-0.692c0.551,0,0.996,0.31,0.996,0.692c0,0.381-0.445,0.691-0.996,0.691
	C91.066,24.469,90.62,24.159,90.62,23.778z"/>
<path id="path3095" inkscape:connector-curvature="0" fill="#232E62" d="M91.127,21.513c-0.753,0.035-2.137,0.543-3.481,0.951
	c-1.74,0.527-3.586,0.158-4.952,0.432c-0.431,0.087,8.433,0.156,8.433,0.156C91.091,21.34,91.127,21.513,91.127,21.513"/>
<path id="path3097" inkscape:connector-curvature="0" fill="none" stroke="#232E62" stroke-width="0.4793" stroke-miterlimit="3.8636" d="
	M91.127,21.513c-0.753,0.035-2.137,0.543-3.481,0.951c-1.74,0.527-3.586,0.158-4.952,0.432c-0.431,0.087,8.433,0.156,8.433,0.156
	C91.091,21.34,91.127,21.513,91.127,21.513L91.127,21.513z"/>
<path id="path3099" inkscape:connector-curvature="0" fill="#FFFFFF" d="M32.312,28.149c0.287,1.124,1.13,1.867,2.512,1.867
	c2.566,0,5.042-1.902,6.531-2.973c1.167-0.83,2.369-1.711,2.369-3.526l-0.215,0.691c0,0,2.01-2.004,6.962-0.415
	c1.376,0.442,7.268,3.75,8.542,4.287c1.095,0.467,4.932,3.219,10.928,2.158c0,0,9.155-1.26,7.109-10.688
	c-1.462-6.738-1.008-7.217-0.452-9.377C76.384,10.07,71,8.86,71.145,16.327c-2.334,0.242-5.312,2.004-3.375,6.638
	c0.79-1.176,1.848-2.42,3.302-2.42c0.915,0,1.879,1.315,1.938,2.282c0.144,2.351-2.225,3.388-5.167,2.904
	c-1.492-0.245-2.866-1.898-4.923-3.386c0.359-0.173,0.688-1.384,0.688-1.868c0-1.193-1.023-1.746-1.722-2.144
	c0.144-0.414,0.429-0.967,0.429-1.382c0-0.951-1.345-0.881-1.864-1.244c0.214-0.294,0.214-0.121,0.214-0.553
	c0-1.383,0.215-2.144-2.584-2.074c0.233-1.366-0.054-2.248-1.005-2.628l-2.082-0.276c-1.292-0.242-0.003-0.672-1.196-1.821
	c-1.063-1.026-2.814,0-2.814,0c0-0.951-0.656-1.706-1.804-1.706c-0.61,0-1.363,0.052-1.794,0.277l-0.861,0.691
	c-1.077,0-1.346-0.968-2.584-0.968c-1.237,0-1.74,0.968-2.225,1.59c-0.843-0.398-0.951-1.106-2.082-1.106
	c-0.664,0-0.86,0.708-1.148,1.037c-0.735,0.812-0.683,1.654-1.832,2.069l-0.427-0.751c-0.014-0.047-0.027-0.095-0.038-0.143
	c-1.688,0.813-5.493,9.489-5.493,11.271c0,1.694,1.474,0.952,1.474,2.767c0,1.071-1.579,1.85-1.579,2.765
	c0,1.158,1.345,1.728,2.512,1.728"/>
<path id="path3101" inkscape:connector-curvature="0" fill="none" stroke="#232E62" stroke-width="0.479" stroke-miterlimit="3.8636" d="
	M32.312,28.149c0.287,1.124,1.13,1.867,2.512,1.867c2.566,0,5.042-1.902,6.531-2.973c1.167-0.83,2.369-1.711,2.369-3.526
	l-0.215,0.691c0,0,2.01-2.004,6.962-0.415c1.376,0.442,7.268,3.75,8.542,4.287c1.095,0.467,4.932,3.219,10.928,2.158
	c0,0,9.155-1.26,7.109-10.688c-1.462-6.738-1.008-7.217-0.452-9.377C76.384,10.07,71,8.86,71.145,16.327
	c-2.334,0.242-5.312,2.004-3.375,6.638c0.79-1.176,1.848-2.42,3.302-2.42c0.915,0,1.879,1.315,1.938,2.282
	c0.144,2.351-2.225,3.388-5.167,2.904c-1.492-0.245-2.866-1.898-4.923-3.386c0.359-0.173,0.688-1.384,0.688-1.868
	c0-1.193-1.023-1.746-1.722-2.144c0.144-0.414,0.429-0.967,0.429-1.382c0-0.951-1.345-0.881-1.864-1.244
	c0.214-0.294,0.214-0.121,0.214-0.553c0-1.383,0.215-2.144-2.584-2.074c0.233-1.366-0.054-2.248-1.005-2.628l-2.082-0.276
	c-1.292-0.242-0.003-0.672-1.196-1.821c-1.063-1.026-2.814,0-2.814,0c0-0.951-0.656-1.706-1.804-1.706
	c-0.61,0-1.363,0.052-1.794,0.277l-0.861,0.691c-1.077,0-1.346-0.968-2.584-0.968c-1.237,0-1.74,0.968-2.225,1.59
	c-0.843-0.398-0.951-1.106-2.082-1.106c-0.664,0-0.86,0.708-1.148,1.037c-0.735,0.812-0.683,1.654-1.832,2.069l-0.427-0.751
	c-0.014-0.047-0.027-0.095-0.038-0.143c-1.688,0.813-5.493,9.489-5.493,11.271c0,1.694,1.474,0.952,1.474,2.767
	c0,1.071-1.579,1.85-1.579,2.765c0,1.158,1.345,1.728,2.512,1.728L32.312,28.149L32.312,28.149z"/>
<path id="path3103" inkscape:connector-curvature="0" fill="#232E62" d="M36.277,20.86c0,0,1.867,0.718,1.867,1.106
	c0,0.525-1.207,1.105-2.01,1.797h-1.005c0.359-1.175,0-0.747,0-1.797C35.129,21.178,35.962,20.86,36.277,20.86"/>
<path id="path3105" inkscape:connector-curvature="0" fill="none" stroke="#232E62" stroke-width="0.4793" stroke-miterlimit="3.8636" d="
	M36.277,20.86c0,0,1.867,0.718,1.867,1.106c0,0.525-1.207,1.105-2.01,1.797h-1.005c0.359-1.175,0-0.747,0-1.797
	C35.129,21.178,35.962,20.86,36.277,20.86z"/>
<path id="path3107" inkscape:connector-curvature="0" fill="none" stroke="#232E62" stroke-width="0.4793" stroke-miterlimit="3.8636" d="
	M43.097,17.678c0.969-0.466,0.52-1.659,2.081-1.659c1.382,0,1.902,0.968,3.158,0.968c0.844,0,1.436-0.83,2.584-0.83
	c1.022,0,2.369,1.383,2.154,3.042c0,0,3.588-1.176,3.445,2.696c2.871-0.968,2.584,1.4,2.871,2.558
	c0.288,1.107,2.155,0.208,1.867,2.558"/>
<path id="path3109" inkscape:connector-curvature="0" fill="#FFFFFF" d="M4.789,8.85h2.889c2.117-0.484,2.889-1.711,5.061-1.711
	c1.561,0,2.296,1.037,3.445,1.037c0.968,0,2.458-1.106,4.091-1.106c1.669,0,2.494,1.002,3.589,1.469
	c0.969,0.415,2.243,0.394,3.589,0.394c-0.037,0.968,0,1.542,0,2.355c0,0.83,1.112,0.501,1.112,1.849
	c0,1.417-1.435,1.141-1.435,1.711l-0.054,5.273c0.071,0.656,1.399,0.742,1.399,1.745c0,1.487-1.479,0.972-1.382,2.143
	c0.072,0.865,0,2.696,0,2.696c-2.854,0-20.816,0.018-21.712-0.017c0.054-1.953-0.031-1.686,0.036-2.627
	c0.053-0.76-1.651-1.227-1.651-2.506c0-0.881,1.023-0.83,1.112-1.659V14.64c-0.054-0.69-1.597-1.037-1.543-2.022
	c0.064-1.177,1.436-1.027,1.436-1.814C4.771,10.458,4.807,9.179,4.789,8.85"/>
<path id="path3111" inkscape:connector-curvature="0" fill="none" stroke="#232E62" stroke-width="0.4793" stroke-miterlimit="3.8636" d="
	M4.789,8.85h2.889c2.117-0.484,2.889-1.711,5.061-1.711c1.561,0,2.296,1.037,3.445,1.037c0.968,0,2.458-1.106,4.091-1.106
	c1.669,0,2.494,1.002,3.589,1.469c0.969,0.415,2.243,0.394,3.589,0.394c-0.037,0.968,0,1.542,0,2.355
	c0,0.83,1.112,0.501,1.112,1.849c0,1.417-1.435,1.141-1.435,1.711l-0.054,5.273c0.071,0.656,1.399,0.742,1.399,1.745
	c0,1.487-1.479,0.972-1.382,2.143c0.072,0.865,0,2.696,0,2.696c-2.854,0-20.816,0.018-21.712-0.017
	c0.054-1.953-0.031-1.686,0.036-2.627c0.053-0.76-1.651-1.227-1.651-2.506c0-0.881,1.023-0.83,1.112-1.659V14.64
	c-0.054-0.69-1.597-1.037-1.543-2.022c0.064-1.177,1.436-1.027,1.436-1.814C4.771,10.458,4.807,9.179,4.789,8.85L4.789,8.85z"/>
<path id="path3113" inkscape:connector-curvature="0" fill="none" stroke="#232E62" stroke-width="0.4793" stroke-miterlimit="3.8636" d="
	M7.139,8.937c0,0,0.036,11.754,0,14.519c0,0,17.12,0.035,17.873-0.035c0-3.129-0.019-14.571-0.019-14.571"/>
<path id="path3115" inkscape:connector-curvature="0" fill="none" stroke="#232E62" stroke-width="0.4793" stroke-miterlimit="3.8636" d="
	M16.093,8.21v15.28"/>
<path id="path3117" inkscape:connector-curvature="0" fill="#232E62" d="M16.362,21.606c0.754,0.035,2.138,0.543,3.482,0.95
	c1.74,0.528,3.586,0.158,4.952,0.432c0.432,0.086-8.434,0.156-8.434,0.156C16.398,21.434,16.362,21.606,16.362,21.606"/>
<path id="path3119" inkscape:connector-curvature="0" fill="none" stroke="#232E62" stroke-width="0.4793" stroke-miterlimit="3.8636" d="
	M16.362,21.606c0.754,0.035,2.138,0.543,3.482,0.95c1.74,0.528,3.586,0.158,4.952,0.432c0.432,0.086-8.434,0.156-8.434,0.156
	C16.398,21.434,16.362,21.606,16.362,21.606z"/>
<path id="path3121" inkscape:connector-curvature="0" fill="#232E62" d="M15.088,23.871c0-0.382,0.446-0.692,0.996-0.692
	c0.551,0,0.996,0.31,0.996,0.692c0,0.381-0.445,0.691-0.996,0.691C15.534,24.562,15.088,24.252,15.088,23.871"/>
<path id="path3123" inkscape:connector-curvature="0" fill="none" stroke="#232E62" stroke-width="0.4793" stroke-miterlimit="3.8636" d="
	M15.088,23.871c0-0.382,0.446-0.692,0.996-0.692c0.551,0,0.996,0.31,0.996,0.692c0,0.381-0.445,0.691-0.996,0.691
	C15.534,24.562,15.088,24.252,15.088,23.871z"/>
<path id="path3125" inkscape:connector-curvature="0" fill="#232E62" d="M15.596,21.606c-0.753,0.035-2.137,0.543-3.48,0.95
	c-1.741,0.528-3.586,0.158-4.953,0.432c-0.431,0.086,8.434,0.156,8.434,0.156C15.561,21.434,15.596,21.606,15.596,21.606"/>
<path id="path3127" inkscape:connector-curvature="0" fill="none" stroke="#232E62" stroke-width="0.4793" stroke-miterlimit="3.8636" d="
	M15.596,21.606c-0.753,0.035-2.137,0.543-3.48,0.95c-1.741,0.528-3.586,0.158-4.953,0.432c-0.431,0.086,8.434,0.156,8.434,0.156
	C15.561,21.434,15.596,21.606,15.596,21.606L15.596,21.606z"/>
<path id="path3129" inkscape:connector-curvature="0" fill="#FFFFFF" d="M19.02,76.691c0-4.932,4.148-8.931,9.267-8.931
	c5.118,0,9.267,3.999,9.267,8.931c0,4.931-4.149,8.925-9.267,8.925C23.168,85.616,19.02,81.622,19.02,76.691"/>
<path id="path3131" inkscape:connector-curvature="0" fill="none" stroke="#232E62" stroke-width="0.4793" stroke-miterlimit="3.8636" d="
	M19.02,76.691c0-4.932,4.148-8.931,9.267-8.931c5.118,0,9.267,3.999,9.267,8.931c0,4.931-4.149,8.925-9.267,8.925
	C23.168,85.616,19.02,81.622,19.02,76.691L19.02,76.691z"/>
<path id="path3133" inkscape:connector-curvature="0" fill="#FFFFFF" d="M44.497,55.25c0-4.93,4.149-8.926,9.266-8.926
	c5.118,0,9.266,3.996,9.266,8.926c0,4.931-4.148,8.924-9.266,8.924C48.646,64.174,44.497,60.181,44.497,55.25"/>
<path id="path3135" inkscape:connector-curvature="0" fill="none" stroke="#232E62" stroke-width="0.479" stroke-miterlimit="3.8636" d="
	M44.497,55.25c0-4.93,4.149-8.926,9.266-8.926c5.118,0,9.266,3.996,9.266,8.926c0,4.931-4.148,8.924-9.266,8.924
	C48.646,64.174,44.497,60.181,44.497,55.25z"/>
<path id="path3137" inkscape:connector-curvature="0" fill="#FFFFFF" d="M68.533,76.691c0-4.932,4.149-8.931,9.268-8.931
	c5.118,0,9.267,3.999,9.267,8.931c0,4.931-4.149,8.925-9.267,8.925C72.682,85.616,68.533,81.622,68.533,76.691"/>
<path id="path3139" inkscape:connector-curvature="0" fill="none" stroke="#232E62" stroke-width="0.4793" stroke-miterlimit="3.8636" d="
	M68.533,76.691c0-4.932,4.149-8.931,9.268-8.931c5.118,0,9.267,3.999,9.267,8.931c0,4.931-4.149,8.925-9.267,8.925
	C72.682,85.616,68.533,81.622,68.533,76.691z"/>
<path id="path3141" inkscape:connector-curvature="0" fill="none" stroke="#232E62" stroke-width="0.4793" stroke-miterlimit="3.8636" d="
	M63.058,21.976c-2.368-2.606-4.457-5.667-4.817-5.819c-1.166-0.484-3.947-6.015-11.412-6.43c-1.895-0.106-9.034,0.587-9.279,2.415"
	/>
<path id="path3143" inkscape:connector-curvature="0" fill="none" stroke="#232E62" stroke-width="0.4793" stroke-miterlimit="3.8636" d="
	M43.771,23.986c0.028-0.179,0.043-0.369,0.043-0.57c0-0.296-1.75-0.128-2.166-0.252c-0.287-0.086,0.77-0.508,0.586-0.508
	c1.077-0.415,3.835-1.629,2.872-2.558c-0.934-0.899-1.49-1.85-2.01-2.42c-0.7-0.76-1.526-1.175-2.8-1.175
	c-1.095,0-2.869,1.899-3.604,2.418c0.539-0.52,2.097-1.866,2.097-2.972c0-2.489-1.991-4.65-2.512-6.706"/>
<path id="path3145" inkscape:connector-curvature="0" fill="none" stroke="#232E62" stroke-width="0.4793" stroke-miterlimit="3.8636" d="
	M33.041,27.772c1.973,0,3.085-0.138,4.02-0.622c1.022-0.536,2.871-1.694,3.302-2.696"/>
<path id="path3147" inkscape:connector-curvature="0" fill="none" stroke="#232E62" stroke-width="0.95" stroke-miterlimit="3.8636" d="
	M0.748,0.74h106.211c0,0,0,52.178,0,53.098c-0.718,43.28-49.22,66.03-55.321,65.821c-6.345-0.218-51.034-22.478-50.901-66.046
	C0.738,52.829,0.748,0.74,0.748,0.74L0.748,0.74z"/>
</svg>
