<?xml version="1.0" encoding="utf-8"?>
<!-- Generator: Adobe Illustrator 16.0.4, SVG Export Plug-In . SVG Version: 6.00 Build 0)  -->
<!DOCTYPE svg PUBLIC "-//W3C//DTD SVG 1.1 Tiny//EN" "http://www.w3.org/Graphics/SVG/1.1/DTD/svg11-tiny.dtd">
<svg version="1.1" baseProfile="tiny"
	 id="svg3399" sodipodi:docname="New document 4" inkscape:version="0.48.1 " xmlns:dc="http://purl.org/dc/elements/1.1/" xmlns:cc="http://creativecommons.org/ns#" xmlns:rdf="http://www.w3.org/1999/02/22-rdf-syntax-ns#" xmlns:svg="http://www.w3.org/2000/svg" xmlns:sodipodi="http://sodipodi.sourceforge.net/DTD/sodipodi-0.dtd" xmlns:inkscape="http://www.inkscape.org/namespaces/inkscape"
	 xmlns="http://www.w3.org/2000/svg" xmlns:xlink="http://www.w3.org/1999/xlink" x="0px" y="0px" width="107.172px"
	 height="119.871px" viewBox="0.262 0.265 107.172 119.871" xml:space="preserve">
<sodipodi:namedview  inkscape:window-maximized="1" inkscape:window-height="721" inkscape:window-width="1024" inkscape:window-y="-4" inkscape:pageopacity="0.0" fit-margin-right="0" inkscape:current-layer="layer1" inkscape:document-units="px" fit-margin-bottom="0" inkscape:window-x="-4" inkscape:pageshadow="2" fit-margin-left="0" fit-margin-top="0" showgrid="false" inkscape:cy="107.28628" inkscape:cx="217.07879" inkscape:zoom="1" borderopacity="1.0" bordercolor="#666666" pagecolor="#ffffff" id="base">
	</sodipodi:namedview>
<path id="path3067" inkscape:connector-curvature="0" fill="#FFFFFF" d="M0.782,0.731h106.213c0,0,0,52.177,0,53.097
	c-0.719,43.281-49.222,66.029-55.323,65.82C45.326,119.432,0.638,97.17,0.771,53.602C0.772,52.82,0.782,0.731,0.782,0.731"/>
<path id="path3069" inkscape:connector-curvature="0" fill="#A41C21" d="M0.771,33C0.926,33.153,0.778,0.74,0.778,0.74h106.135
	c0,0,0,17.384,0,32.261"/>
<path id="path3071" inkscape:connector-curvature="0" fill="none" stroke="#A41C21" stroke-width="0.4793" stroke-miterlimit="3.8636" d="
	M0.771,33C0.926,33.153,0.778,0.74,0.778,0.74h106.135c0,0,0,17.384,0,32.261L0.771,33L0.771,33z"/>
<path id="path3073" inkscape:connector-curvature="0" fill="#232E62" d="M6.718,80.229c4.083,8.58,9.13,15.49,16.215,21.369
	L53.838,70.35l29.749,30.516c6.132-5.607,12.105-12.398,16.385-20.441L53.803,36.005L6.93,80.318"/>
<path id="path3075" inkscape:connector-curvature="0" fill="none" stroke="#232E62" stroke-width="0.479" stroke-miterlimit="3.8636" d="
	M6.718,80.229c4.083,8.58,9.13,15.49,16.215,21.369L53.838,70.35l29.749,30.516c6.132-5.607,12.105-12.398,16.385-20.441
	L53.803,36.005L6.93,80.318L6.718,80.229z"/>
<path id="path3077" inkscape:connector-curvature="0" fill="none" stroke="#232E62" stroke-width="0.4793" stroke-miterlimit="3.8636" d="
	M0.771,33.219l106.136-0.014"/>
<path id="path3079" inkscape:connector-curvature="0" fill="#FFFFFF" d="M80.32,8.756h2.889c2.117-0.483,2.889-1.711,5.06-1.711
	c1.562,0,2.298,1.038,3.446,1.038c0.969,0,2.459-1.106,4.091-1.106c1.669,0,2.495,1.003,3.59,1.469
	c0.969,0.415,2.242,0.393,3.588,0.393c-0.037,0.968,0,1.543,0,2.355c0,0.83,1.112,0.501,1.112,1.85c0,1.417-1.437,1.141-1.437,1.711
	l-0.053,5.271c0.072,0.657,1.4,0.744,1.4,1.746c0,1.487-1.479,0.972-1.382,2.144c0.071,0.864,0,2.696,0,2.696
	c-2.853,0-21.203,0.168-22.101,0.133c0.054-1.953,0.358-1.836,0.425-2.778c0.054-0.76-1.65-1.228-1.65-2.506
	c0-0.882,1.022-0.83,1.111-1.66v-5.254c-0.053-0.691-1.596-1.037-1.543-2.021c0.064-1.179,1.437-1.029,1.437-1.816
	C80.302,10.365,80.338,9.085,80.32,8.756"/>
<path id="path3081" inkscape:connector-curvature="0" fill="none" stroke="#232E62" stroke-width="0.4793" stroke-miterlimit="3.8636" d="
	M80.32,8.756h2.889c2.117-0.483,2.889-1.711,5.06-1.711c1.562,0,2.298,1.038,3.446,1.038c0.969,0,2.459-1.106,4.091-1.106
	c1.669,0,2.495,1.003,3.59,1.469c0.969,0.415,2.242,0.393,3.588,0.393c-0.037,0.968,0,1.543,0,2.355c0,0.83,1.112,0.501,1.112,1.85
	c0,1.417-1.437,1.141-1.437,1.711l-0.053,5.271c0.072,0.657,1.4,0.744,1.4,1.746c0,1.487-1.479,0.972-1.382,2.144
	c0.071,0.864,0,2.696,0,2.696c-2.853,0-21.203,0.168-22.101,0.133c0.054-1.953,0.358-1.836,0.425-2.778
	c0.054-0.76-1.65-1.228-1.65-2.506c0-0.882,1.022-0.83,1.111-1.66v-5.254c-0.053-0.691-1.596-1.037-1.543-2.021
	c0.064-1.179,1.437-1.029,1.437-1.816C80.302,10.365,80.338,9.085,80.32,8.756L80.32,8.756z"/>
<path id="path3083" inkscape:connector-curvature="0" fill="none" stroke="#232E62" stroke-width="0.4793" stroke-miterlimit="3.8636" d="
	M82.671,8.844c0,0,0.036,11.753,0,14.519c0,0,17.119,0.035,17.872-0.035c0-3.129-0.017-14.572-0.017-14.572"/>
<path id="path3085" inkscape:connector-curvature="0" fill="none" stroke="#232E62" stroke-width="0.4793" stroke-miterlimit="3.8636" d="
	M91.625,8.117v15.28"/>
<path id="path3087" inkscape:connector-curvature="0" fill="#232E62" d="M91.895,21.513c0.753,0.035,2.137,0.543,3.481,0.951
	c1.74,0.527,3.585,0.158,4.951,0.432c0.431,0.087-8.433,0.156-8.433,0.156C91.93,21.34,91.895,21.513,91.895,21.513"/>
<path id="path3089" inkscape:connector-curvature="0" fill="none" stroke="#232E62" stroke-width="0.4793" stroke-miterlimit="3.8636" d="
	M91.895,21.513c0.753,0.035,2.137,0.543,3.481,0.951c1.74,0.527,3.585,0.158,4.951,0.432c0.431,0.087-8.433,0.156-8.433,0.156
	C91.93,21.34,91.895,21.513,91.895,21.513L91.895,21.513z"/>
<path id="path3091" inkscape:connector-curvature="0" fill="#232E62" d="M90.62,23.778c0-0.382,0.446-0.692,0.996-0.692
	c0.551,0,0.996,0.31,0.996,0.692c0,0.381-0.445,0.691-0.996,0.691C91.066,24.469,90.62,24.159,90.62,23.778"/>
<path id="path3093" inkscape:connector-curvature="0" fill="none" stroke="#232E62" stroke-width="0.4793" stroke-miterlimit="3.8636" d="
	M90.62,23.778c0-0.382,0.446-0.692,0.996-0.692c0.551,0,0.996,0.31,0.996,0.692c0,0.381-0.445,0.691-0.996,0.691
	C91.066,24.469,90.62,24.159,90.62,23.778z"/>
<path id="path3095" inkscape:connector-curvature="0" fill="#232E62" d="M91.127,21.513c-0.753,0.035-2.137,0.543-3.481,0.951
	c-1.74,0.527-3.586,0.158-4.952,0.432c-0.431,0.087,8.433,0.156,8.433,0.156C91.091,21.34,91.127,21.513,91.127,21.513"/>
<path id="path3097" inkscape:connector-curvature="0" fill="none" stroke="#232E62" stroke-width="0.4793" stroke-miterlimit="3.8636" d="
	M91.127,21.513c-0.753,0.035-2.137,0.543-3.481,0.951c-1.74,0.527-3.586,0.158-4.952,0.432c-0.431,0.087,8.433,0.156,8.433,0.156
	C91.091,21.34,91.127,21.513,91.127,21.513L91.127,21.513z"/>
<path id="path3099" inkscape:connector-curvature="0" fill="#FFFFFF" d="M32.312,28.149c0.287,1.124,1.13,1.867,2.512,1.867
	c2.566,0,5.042-1.902,6.531-2.973c1.167-0.83,2.369-1.711,2.369-3.526l-0.215,0.691c0,0,2.01-2.004,6.962-0.415
	c1.376,0.442,7.268,3.75,8.542,4.287c1.095,0.467,4.932,3.219,10.928,2.158c0,0,9.155-1.26,7.109-10.688
	c-1.462-6.738-1.008-7.217-0.452-9.377C76.384,10.07,71,8.86,71.145,16.327c-2.334,0.242-5.312,2.004-3.375,6.638
	c0.79-1.176,1.848-2.42,3.302-2.42c0.915,0,1.879,1.315,1.938,2.282c0.144,2.351-2.225,3.388-5.167,2.904
	c-1.492-0.245-2.866-1.898-4.923-3.386c0.359-0.173,0.688-1.384,0.688-1.868c0-1.193-1.023-1.746-1.722-2.144
	c0.144-0.414,0.429-0.967,0.429-1.382c0-0.951-1.345-0.881-1.864-1.244c0.214-0.294,0.214-0.121,0.214-0.553
	c0-1.383,0.215-2.144-2.584-2.074c0.233-1.366-0.054-2.248-1.005-2.628l-2.082-0.276c-1.292-0.242-0.003-0.672-1.196-1.821
	c-1.063-1.026-2.814,0-2.814,0c0-0.951-0.656-1.706-1.804-1.706c-0.61,0-1.363,0.052-1.794,0.277l-0.861,0.691
	c-1.077,0-1.346-0.968-2.584-0.968c-1.237,0-1.74,0.968-2.225,1.59c-0.843-0.398-0.951-1.106-2.082-1.106
	c-0.664,0-0.86,0.708-1.148,1.037c-0.735,0.812-0.683,1.654-1.832,2.069l-0.427-0.751c-0.014-0.047-0.027-0.095-0.038-0.143
	c-1.688,0.813-5.493,9.489-5.493,11.271c0,1.694,1.474,0.952,1.474,2.767c0,1.071-1.579,1.85-1.579,2.765
	c0,1.158,1.345,1.728,2.512,1.728"/>
<path id="path3101" inkscape:connector-curvature="0" fill="none" stroke="#232E62" stroke-width="0.479" stroke-miterlimit="3.8636" d="
	M32.312,28.149c0.287,1.124,1.13,1.867,2.512,1.867c2.566,0,5.042-1.902,6.531-2.973c1.167-0.83,2.369-1.711,2.369-3.526
	l-0.215,0.691c0,0,2.01-2.004,6.962-0.415c1.376,0.442,7.268,3.75,8.542,4.287c1.095,0.467,4.932,3.219,10.928,2.158
	c0,0,9.155-1.26,7.109-10.688c-1.462-6.738-1.008-7.217-0.452-9.377C76.384,10.07,71,8.86,71.145,16.327
	c-2.334,0.242-5.312,2.004-3.375,6.638c0.79-1.176,1.848-2.42,3.302-2.42c0.915,0,1.879,1.315,1.938,2.282
	c0.144,2.351-2.225,3.388-5.167,2.904c-1.492-0.245-2.866-1.898-4.923-3.386c0.359-0.173,0.688-1.384,0.688-1.868
	c0-1.193-1.023-1.746-1.722-2.144c0.144-0.414,0.429-0.967,0.429-1.382c0-0.951-1.345-0.881-1.864-1.244
	c0.214-0.294,0.214-0.121,0.214-0.553c0-1.383,0.215-2.144-2.584-2.074c0.233-1.366-0.054-2.248-1.005-2.628l-2.082-0.276
	c-1.292-0.242-0.003-0.672-1.196-1.821c-1.063-1.026-2.814,0-2.814,0c0-0.951-0.656-1.706-1.804-1.706
	c-0.61,0-1.363,0.052-1.794,0.277l-0.861,0.691c-1.077,0-1.346-0.968-2.584-0.968c-1.237,0-1.74,0.968-2.225,1.59
	c-0.843-0.398-0.951-1.106-2.082-1.106c-0.664,0-0.86,0.708-1.148,1.037c-0.735,0.812-0.683,1.654-1.832,2.069l-0.427-0.751
	c-0.014-0.047-0.027-0.095-0.038-0.143c-1.688,0.813-5.493,9.489-5.493,11.271c0,1.694,1.474,0.952,1.474,2.767
	c0,1.071-1.579,1.85-1.579,2.765c0,1.158,1.345,1.728,2.512,1.728L32.312,28.149L32.312,28.149z"/>
<path id="path3103" inkscape:connector-curvature="0" fill="#232E62" d="M36.277,20.86c0,0,1.867,0.718,1.867,1.106
	c0,0.525-1.207,1.105-2.01,1.797h-1.005c0.359-1.175,0-0.747,0-1.797C35.129,21.178,35.962,20.86,36.277,20.86"/>
<path id="path3105" inkscape:connector-curvature="0" fill="none" stroke="#232E62" stroke-width="0.4793" stroke-miterlimit="3.8636" d="
	M36.277,20.86c0,0,1.867,0.718,1.867,1.106c0,0.525-1.207,1.105-2.01,1.797h-1.005c0.359-1.175,0-0.747,0-1.797
	C35.129,21.178,35.962,20.86,36.277,20.86z"/>
<path id="path3107" inkscape:connector-curvature="0" fill="none" stroke="#232E62" stroke-width="0.4793" stroke-miterlimit="3.8636" d="
	M43.097,17.678c0.969-0.466,0.52-1.659,2.081-1.659c1.382,0,1.902,0.968,3.158,0.968c0.844,0,1.436-0.83,2.584-0.83
	c1.022,0,2.369,1.383,2.154,3.042c0,0,3.588-1.176,3.445,2.696c2.871-0.968,2.584,1.4,2.871,2.558
	c0.288,1.107,2.155,0.208,1.867,2.558"/>
<path id="path3109" inkscape:connector-curvature="0" fill="#FFFFFF" d="M4.789,8.85h2.889c2.117-0.484,2.889-1.711,5.061-1.711
	c1.561,0,2.296,1.037,3.445,1.037c0.968,0,2.458-1.106,4.091-1.106c1.669,0,2.494,1.002,3.589,1.469
	c0.969,0.415,2.243,0.394,3.589,0.394c-0.037,0.968,0,1.542,0,2.355c0,0.83,1.112,0.501,1.112,1.849
	c0,1.417-1.435,1.141-1.435,1.711l-0.054,5.273c0.071,0.656,1.399,0.742,1.399,1.745c0,1.487-1.479,0.972-1.382,2.143
	c0.072,0.865,0,2.696,0,2.696c-2.854,0-20.816,0.018-21.712-0.017c0.054-1.953-0.031-1.686,0.036-2.627
	c0.053-0.76-1.651-1.227-1.651-2.506c0-0.881,1.023-0.83,1.112-1.659V14.64c-0.054-0.69-1.597-1.037-1.543-2.022
	c0.064-1.177,1.436-1.027,1.436-1.814C4.771,10.458,4.807,9.179,4.789,8.85"/>
<path id="path3111" inkscape:connector-curvature="0" fill="none" stroke="#232E62" stroke-width="0.4793" stroke-miterlimit="3.8636" d="
	M4.789,8.85h2.889c2.117-0.484,2.889-1.711,5.061-1.711c1.561,0,2.296,1.037,3.445,1.037c0.968,0,2.458-1.106,4.091-1.106
	c1.669,0,2.494,1.002,3.589,1.469c0.969,0.415,2.243,0.394,3.589,0.394c-0.037,0.968,0,1.542,0,2.355
	c0,0.83,1.112,0.501,1.112,1.849c0,1.417-1.435,1.141-1.435,1.711l-0.054,5.273c0.071,0.656,1.399,0.742,1.399,1.745
	c0,1.487-1.479,0.972-1.382,2.143c0.072,0.865,0,2.696,0,2.696c-2.854,0-20.816,0.018-21.712-0.017
	c0.054-1.953-0.031-1.686,0.036-2.627c0.053-0.76-1.651-1.227-1.651-2.506c0-0.881,1.023-0.83,1.112-1.659V14.64
	c-0.054-0.69-1.597-1.037-1.543-2.022c0.064-1.177,1.436-1.027,1.436-1.814C4.771,10.458,4.807,9.179,4.789,8.85L4.789,8.85z"/>
<path id="path3113" inkscape:connector-curvature="0" fill="none" stroke="#232E62" stroke-width="0.4793" stroke-miterlimit="3.8636" d="
	M7.139,8.937c0,0,0.036,11.754,0,14.519c0,0,17.12,0.035,17.873-0.035c0-3.129-0.019-14.571-0.019-14.571"/>
<path id="path3115" inkscape:connector-curvature="0" fill="none" stroke="#232E62" stroke-width="0.4793" stroke-miterlimit="3.8636" d="
	M16.093,8.21v15.28"/>
<path id="path3117" inkscape:connector-curvature="0" fill="#232E62" d="M16.362,21.606c0.754,0.035,2.138,0.543,3.482,0.95
	c1.74,0.528,3.586,0.158,4.952,0.432c0.432,0.086-8.434,0.156-8.434,0.156C16.398,21.434,16.362,21.606,16.362,21.606"/>
<path id="path3119" inkscape:connector-curvature="0" fill="none" stroke="#232E62" stroke-width="0.4793" stroke-miterlimit="3.8636" d="
	M16.362,21.606c0.754,0.035,2.138,0.543,3.482,0.95c1.74,0.528,3.586,0.158,4.952,0.432c0.432,0.086-8.434,0.156-8.434,0.156
	C16.398,21.434,16.362,21.606,16.362,21.606z"/>
<path id="path3121" inkscape:connector-curvature="0" fill="#232E62" d="M15.088,23.871c0-0.382,0.446-0.692,0.996-0.692
	c0.551,0,0.996,0.31,0.996,0.692c0,0.381-0.445,0.691-0.996,0.691C15.534,24.562,15.088,24.252,15.088,23.871"/>
<path id="path3123" inkscape:connector-curvature="0" fill="none" stroke="#232E62" stroke-width="0.4793" stroke-miterlimit="3.8636" d="
	M15.088,23.871c0-0.382,0.446-0.692,0.996-0.692c0.551,0,0.996,0.31,0.996,0.692c0,0.381-0.445,0.691-0.996,0.691
	C15.534,24.562,15.088,24.252,15.088,23.871z"/>
<path id="path3125" inkscape:connector-curvature="0" fill="#232E62" d="M15.596,21.606c-0.753,0.035-2.137,0.543-3.48,0.95
	c-1.741,0.528-3.586,0.158-4.953,0.432c-0.431,0.086,8.434,0.156,8.434,0.156C15.561,21.434,15.596,21.606,15.596,21.606"/>
<path id="path3127" inkscape:connector-curvature="0" fill="none" stroke="#232E62" stroke-width="0.4793" stroke-miterlimit="3.8636" d="
	M15.596,21.606c-0.753,0.035-2.137,0.543-3.48,0.95c-1.741,0.528-3.586,0.158-4.953,0.432c-0.431,0.086,8.434,0.156,8.434,0.156
	C15.561,21.434,15.596,21.606,15.596,21.606L15.596,21.606z"/>
<path id="path3129" inkscape:connector-curvature="0" fill="#FFFFFF" d="M19.02,76.691c0-4.932,4.148-8.931,9.267-8.931
	c5.118,0,9.267,3.999,9.267,8.931c0,4.931-4.149,8.925-9.267,8.925C23.168,85.616,19.02,81.622,19.02,76.691"/>
<path id="path3131" inkscape:connector-curvature="0" fill="none" stroke="#232E62" stroke-width="0.4793" stroke-miterlimit="3.8636" d="
	M19.02,76.691c0-4.932,4.148-8.931,9.267-8.931c5.118,0,9.267,3.999,9.267,8.931c0,4.931-4.149,8.925-9.267,8.925
	C23.168,85.616,19.02,81.622,19.02,76.691L19.02,76.691z"/>
<path id="path3133" inkscape:connector-curvature="0" fill="#FFFFFF" d="M44.497,55.25c0-4.93,4.149-8.926,9.266-8.926
	c5.118,0,9.266,3.996,9.266,8.926c0,4.931-4.148,8.924-9.266,8.924C48.646,64.174,44.497,60.181,44.497,55.25"/>
<path id="path3135" inkscape:connector-curvature="0" fill="none" stroke="#232E62" stroke-width="0.479" stroke-miterlimit="3.8636" d="
	M44.497,55.25c0-4.93,4.149-8.926,9.266-8.926c5.118,0,9.266,3.996,9.266,8.926c0,4.931-4.148,8.924-9.266,8.924
	C48.646,64.174,44.497,60.181,44.497,55.25z"/>
<path id="path3137" inkscape:connector-curvature="0" fill="#FFFFFF" d="M68.533,76.691c0-4.932,4.149-8.931,9.268-8.931
	c5.118,0,9.267,3.999,9.267,8.931c0,4.931-4.149,8.925-9.267,8.925C72.682,85.616,68.533,81.622,68.533,76.691"/>
<path id="path3139" inkscape:connector-curvature="0" fill="none" stroke="#232E62" stroke-width="0.4793" stroke-miterlimit="3.8636" d="
	M68.533,76.691c0-4.932,4.149-8.931,9.268-8.931c5.118,0,9.267,3.999,9.267,8.931c0,4.931-4.149,8.925-9.267,8.925
	C72.682,85.616,68.533,81.622,68.533,76.691z"/>
<path id="path3141" inkscape:connector-curvature="0" fill="none" stroke="#232E62" stroke-width="0.4793" stroke-miterlimit="3.8636" d="
	M63.058,21.976c-2.368-2.606-4.457-5.667-4.817-5.819c-1.166-0.484-3.947-6.015-11.412-6.43c-1.895-0.106-9.034,0.587-9.279,2.415"
	/>
<path id="path3143" inkscape:connector-curvature="0" fill="none" stroke="#232E62" stroke-width="0.4793" stroke-miterlimit="3.8636" d="
	M43.771,23.986c0.028-0.179,0.043-0.369,0.043-0.57c0-0.296-1.75-0.128-2.166-0.252c-0.287-0.086,0.77-0.508,0.586-0.508
	c1.077-0.415,3.835-1.629,2.872-2.558c-0.934-0.899-1.49-1.85-2.01-2.42c-0.7-0.76-1.526-1.175-2.8-1.175
	c-1.095,0-2.869,1.899-3.604,2.418c0.539-0.52,2.097-1.866,2.097-2.972c0-2.489-1.991-4.65-2.512-6.706"/>
<path id="path3145" inkscape:connector-curvature="0" fill="none" stroke="#232E62" stroke-width="0.4793" stroke-miterlimit="3.8636" d="
	M33.041,27.772c1.973,0,3.085-0.138,4.02-0.622c1.022-0.536,2.871-1.694,3.302-2.696"/>
<path id="path3147" inkscape:connector-curvature="0" fill="none" stroke="#232E62" stroke-width="0.95" stroke-miterlimit="3.8636" d="
	M0.748,0.74h106.211c0,0,0,52.178,0,53.098c-0.718,43.28-49.22,66.03-55.321,65.821c-6.345-0.218-51.034-22.478-50.901-66.046
	C0.738,52.829,0.748,0.74,0.748,0.74L0.748,0.74z"/>
</svg>
